# MagicaVoxel @ Ephtracy

# material
mtllib empty.mtl
usemtl palette

# normals
vn -1 0 0
vn 1 0 0
vn 0 0 1
vn 0 0 -1
vn 0 -1 0
vn 0 1 0

# texcoords
vt 0.970703 0.5
vt 0.974609 0.5
vt 0.978516 0.5
vt 0.982422 0.5
vt 0.986328 0.5
vt 0.990234 0.5

# verts
v -4 2 2
v -4 2 -2
v -4 6 2
v -4 6 -2
v -2 0 2
v -2 0 -2
v -2 1 2
v -2 1 -2
v -2 2 4
v -2 2 3
v -2 2 -3
v -2 2 -4
v -2 6 4
v -2 6 3
v -2 6 -3
v -2 6 -4
v -2 7 2
v -2 7 -2
v -2 8 2
v -2 8 -2
v 3 2 2
v 3 2 -2
v 3 6 2
v 3 6 -2
v -3 2 2
v -3 2 -2
v -3 6 2
v -3 6 -2
v 2 0 2
v 2 0 -2
v 2 1 2
v 2 1 -2
v 2 2 4
v 2 2 3
v 2 2 -3
v 2 2 -4
v 2 6 4
v 2 6 3
v 2 6 -3
v 2 6 -4
v 2 7 2
v 2 7 -2
v 2 8 2
v 2 8 -2
v 4 2 2
v 4 2 -2
v 4 6 2
v 4 6 -2
v -2 2 4
v -2 6 4
v 2 2 4
v 2 6 4
v -4 2 2
v -4 6 2
v -3 2 2
v -3 6 2
v -2 0 2
v -2 1 2
v -2 7 2
v -2 8 2
v 2 0 2
v 2 1 2
v 2 7 2
v 2 8 2
v 3 2 2
v 3 6 2
v 4 2 2
v 4 6 2
v -2 2 -3
v -2 6 -3
v 2 2 -3
v 2 6 -3
v -2 2 3
v -2 6 3
v 2 2 3
v 2 6 3
v -4 2 -2
v -4 6 -2
v -3 2 -2
v -3 6 -2
v -2 0 -2
v -2 1 -2
v -2 7 -2
v -2 8 -2
v 2 0 -2
v 2 1 -2
v 2 7 -2
v 2 8 -2
v 3 2 -2
v 3 6 -2
v 4 2 -2
v 4 6 -2
v -2 2 -4
v -2 6 -4
v 2 2 -4
v 2 6 -4
v -2 0 2
v 2 0 2
v -2 0 -2
v 2 0 -2
v -2 2 4
v 2 2 4
v -2 2 3
v 2 2 3
v -4 2 2
v -3 2 2
v 3 2 2
v 4 2 2
v -4 2 -2
v -3 2 -2
v 3 2 -2
v 4 2 -2
v -2 2 -3
v 2 2 -3
v -2 2 -4
v 2 2 -4
v -2 7 2
v 2 7 2
v -2 7 -2
v 2 7 -2
v -2 1 2
v 2 1 2
v -2 1 -2
v 2 1 -2
v -2 6 4
v 2 6 4
v -2 6 3
v 2 6 3
v -4 6 2
v -3 6 2
v 3 6 2
v 4 6 2
v -4 6 -2
v -3 6 -2
v 3 6 -2
v 4 6 -2
v -2 6 -3
v 2 6 -3
v -2 6 -4
v 2 6 -4
v -2 8 2
v 2 8 2
v -2 8 -2
v 2 8 -2

# faces
f 3/3/1 2/3/1 1/3/1
f 4/3/1 2/3/1 3/3/1
f 7/6/1 6/6/1 5/6/1
f 8/6/1 6/6/1 7/6/1
f 13/4/1 10/4/1 9/4/1
f 14/4/1 10/4/1 13/4/1
f 15/2/1 12/2/1 11/2/1
f 16/2/1 12/2/1 15/2/1
f 19/5/1 18/5/1 17/5/1
f 20/5/1 18/5/1 19/5/1
f 23/1/1 22/1/1 21/1/1
f 24/1/1 22/1/1 23/1/1
f 25/3/2 26/3/2 27/3/2
f 27/3/2 26/3/2 28/3/2
f 29/6/2 30/6/2 31/6/2
f 31/6/2 30/6/2 32/6/2
f 33/4/2 34/4/2 37/4/2
f 37/4/2 34/4/2 38/4/2
f 35/2/2 36/2/2 39/2/2
f 39/2/2 36/2/2 40/2/2
f 41/5/2 42/5/2 43/5/2
f 43/5/2 42/5/2 44/5/2
f 45/1/2 46/1/2 47/1/2
f 47/1/2 46/1/2 48/1/2
f 51/4/3 50/4/3 49/4/3
f 52/4/3 50/4/3 51/4/3
f 55/3/3 54/3/3 53/3/3
f 56/3/3 54/3/3 55/3/3
f 61/6/3 58/6/3 57/6/3
f 62/6/3 58/6/3 61/6/3
f 63/5/3 60/5/3 59/5/3
f 64/5/3 60/5/3 63/5/3
f 67/1/3 66/1/3 65/1/3
f 68/1/3 66/1/3 67/1/3
f 71/2/3 70/2/3 69/2/3
f 72/2/3 70/2/3 71/2/3
f 73/4/4 74/4/4 75/4/4
f 75/4/4 74/4/4 76/4/4
f 77/3/4 78/3/4 79/3/4
f 79/3/4 78/3/4 80/3/4
f 81/6/4 82/6/4 85/6/4
f 85/6/4 82/6/4 86/6/4
f 83/5/4 84/5/4 87/5/4
f 87/5/4 84/5/4 88/5/4
f 89/1/4 90/1/4 91/1/4
f 91/1/4 90/1/4 92/1/4
f 93/2/4 94/2/4 95/2/4
f 95/2/4 94/2/4 96/2/4
f 99/6/5 98/6/5 97/6/5
f 100/6/5 98/6/5 99/6/5
f 103/4/5 102/4/5 101/4/5
f 104/4/5 102/4/5 103/4/5
f 109/3/5 106/3/5 105/3/5
f 110/3/5 106/3/5 109/3/5
f 111/1/5 108/1/5 107/1/5
f 112/1/5 108/1/5 111/1/5
f 115/2/5 114/2/5 113/2/5
f 116/2/5 114/2/5 115/2/5
f 119/5/5 118/5/5 117/5/5
f 120/5/5 118/5/5 119/5/5
f 121/6/6 122/6/6 123/6/6
f 123/6/6 122/6/6 124/6/6
f 125/4/6 126/4/6 127/4/6
f 127/4/6 126/4/6 128/4/6
f 129/3/6 130/3/6 133/3/6
f 133/3/6 130/3/6 134/3/6
f 131/1/6 132/1/6 135/1/6
f 135/1/6 132/1/6 136/1/6
f 137/2/6 138/2/6 139/2/6
f 139/2/6 138/2/6 140/2/6
f 141/5/6 142/5/6 143/5/6
f 143/5/6 142/5/6 144/5/6
