# MagicaVoxel @ Ephtracy

# material
mtllib groundthing9.mtl
usemtl palette

# normals
vn -1 0 0
vn 1 0 0
vn 0 0 1
vn 0 0 -1
vn 0 -1 0
vn 0 1 0

# texcoords
vt 0.306641 0.5
vt 0.962891 0.5
vt 0.994141 0.5

# verts
v -38 0 63
v -38 0 34
v -38 1 62
v -38 1 49
v -38 1 48
v -38 1 35
v -38 15 62
v -38 15 49
v -38 15 48
v -38 15 35
v -38 16 63
v -38 16 34
v -23 0 34
v -23 0 20
v -23 1 34
v -23 1 21
v -23 15 34
v -23 15 21
v -23 16 34
v -23 16 20
v -22 0 63
v -22 0 49
v -22 1 62
v -22 1 49
v -22 15 62
v -22 15 49
v -22 16 63
v -22 16 49
v -7 0 49
v -7 0 20
v -7 1 48
v -7 1 35
v -7 1 34
v -7 1 21
v -7 15 48
v -7 15 35
v -7 15 34
v -7 15 21
v -7 16 49
v -7 16 20
v -38 0 63
v -38 16 63
v -37 1 63
v -37 15 63
v -23 1 63
v -23 15 63
v -22 0 63
v -22 16 63
v -22 0 49
v -22 1 49
v -22 15 49
v -22 16 49
v -8 1 49
v -8 15 49
v -7 0 49
v -7 16 49
v -38 0 34
v -38 16 34
v -37 1 34
v -37 15 34
v -23 0 34
v -23 1 34
v -23 15 34
v -23 16 34
v -23 0 20
v -23 16 20
v -22 1 20
v -22 15 20
v -8 1 20
v -8 15 20
v -7 0 20
v -7 16 20
v -38 0 63
v -22 0 63
v -37 0 62
v -23 0 62
v -37 0 49
v -23 0 49
v -22 0 49
v -7 0 49
v -37 0 48
v -23 0 48
v -22 0 48
v -8 0 48
v -37 0 35
v -23 0 35
v -22 0 35
v -8 0 35
v -38 0 34
v -23 0 34
v -22 0 34
v -8 0 34
v -22 0 21
v -8 0 21
v -23 0 20
v -7 0 20
v -38 16 63
v -22 16 63
v -37 16 62
v -23 16 62
v -37 16 49
v -23 16 49
v -22 16 49
v -7 16 49
v -37 16 48
v -23 16 48
v -22 16 48
v -8 16 48
v -37 16 35
v -23 16 35
v -22 16 35
v -8 16 35
v -38 16 34
v -23 16 34
v -22 16 34
v -8 16 34
v -22 16 21
v -8 16 21
v -23 16 20
v -7 16 20

# faces
f 3/3/1 2/3/1 1/3/1
f 4/3/1 2/3/1 3/3/1
f 5/3/1 2/3/1 4/3/1
f 6/3/1 2/3/1 5/3/1
f 7/3/1 3/3/1 1/3/1
f 7/2/1 4/2/1 3/2/1
f 8/3/1 5/3/1 4/3/1
f 8/2/1 4/2/1 7/2/1
f 9/2/1 6/2/1 5/2/1
f 9/3/1 5/3/1 8/3/1
f 10/3/1 2/3/1 6/3/1
f 10/2/1 6/2/1 9/2/1
f 11/3/1 9/3/1 8/3/1
f 11/3/1 8/3/1 7/3/1
f 11/3/1 10/3/1 9/3/1
f 11/3/1 7/3/1 1/3/1
f 12/3/1 2/3/1 10/3/1
f 12/3/1 10/3/1 11/3/1
f 15/3/1 14/3/1 13/3/1
f 16/3/1 14/3/1 15/3/1
f 17/2/1 16/2/1 15/2/1
f 18/3/1 14/3/1 16/3/1
f 18/2/1 16/2/1 17/2/1
f 19/3/1 18/3/1 17/3/1
f 20/3/1 14/3/1 18/3/1
f 20/3/1 18/3/1 19/3/1
f 21/3/2 22/3/2 23/3/2
f 23/3/2 22/3/2 24/3/2
f 21/3/2 23/3/2 25/3/2
f 23/2/2 24/2/2 25/2/2
f 25/2/2 24/2/2 26/2/2
f 21/3/2 25/3/2 27/3/2
f 25/3/2 26/3/2 27/3/2
f 27/3/2 26/3/2 28/3/2
f 29/3/2 30/3/2 31/3/2
f 31/3/2 30/3/2 32/3/2
f 32/3/2 30/3/2 33/3/2
f 33/3/2 30/3/2 34/3/2
f 29/3/2 31/3/2 35/3/2
f 31/2/2 32/2/2 35/2/2
f 32/3/2 33/3/2 36/3/2
f 35/2/2 32/2/2 36/2/2
f 33/2/2 34/2/2 37/2/2
f 36/3/2 33/3/2 37/3/2
f 34/3/2 30/3/2 38/3/2
f 37/2/2 34/2/2 38/2/2
f 36/3/2 37/3/2 39/3/2
f 35/3/2 36/3/2 39/3/2
f 37/3/2 38/3/2 39/3/2
f 29/3/2 35/3/2 39/3/2
f 38/3/2 30/3/2 40/3/2
f 39/3/2 38/3/2 40/3/2
f 43/3/3 42/3/3 41/3/3
f 44/3/3 42/3/3 43/3/3
f 45/3/3 43/3/3 41/3/3
f 45/2/3 44/2/3 43/2/3
f 46/3/3 42/3/3 44/3/3
f 46/2/3 44/2/3 45/2/3
f 47/3/3 45/3/3 41/3/3
f 47/3/3 46/3/3 45/3/3
f 48/3/3 42/3/3 46/3/3
f 48/3/3 46/3/3 47/3/3
f 53/3/3 50/3/3 49/3/3
f 53/2/3 51/2/3 50/2/3
f 54/3/3 52/3/3 51/3/3
f 54/2/3 51/2/3 53/2/3
f 55/3/3 53/3/3 49/3/3
f 55/3/3 54/3/3 53/3/3
f 56/3/3 52/3/3 54/3/3
f 56/3/3 54/3/3 55/3/3
f 57/3/4 58/3/4 59/3/4
f 59/3/4 58/3/4 60/3/4
f 57/3/4 59/3/4 61/3/4
f 59/2/4 60/2/4 62/2/4
f 61/3/4 59/3/4 62/3/4
f 60/3/4 58/3/4 63/3/4
f 62/2/4 60/2/4 63/2/4
f 63/3/4 58/3/4 64/3/4
f 65/3/4 66/3/4 67/3/4
f 67/3/4 66/3/4 68/3/4
f 65/3/4 67/3/4 69/3/4
f 67/2/4 68/2/4 69/2/4
f 68/3/4 66/3/4 70/3/4
f 69/2/4 68/2/4 70/2/4
f 65/3/4 69/3/4 71/3/4
f 69/3/4 70/3/4 71/3/4
f 70/3/4 66/3/4 72/3/4
f 71/3/4 70/3/4 72/3/4
f 75/3/5 74/3/5 73/3/5
f 76/3/5 74/3/5 75/3/5
f 77/3/5 75/3/5 73/3/5
f 77/2/5 76/2/5 75/2/5
f 78/3/5 74/3/5 76/3/5
f 78/2/5 76/2/5 77/2/5
f 79/3/5 74/3/5 78/3/5
f 81/3/5 77/3/5 73/3/5
f 81/3/5 80/3/5 79/3/5
f 81/3/5 79/3/5 78/3/5
f 81/3/5 78/3/5 77/3/5
f 82/3/5 80/3/5 81/3/5
f 83/3/5 80/3/5 82/3/5
f 84/3/5 80/3/5 83/3/5
f 85/3/5 81/3/5 73/3/5
f 85/2/5 82/2/5 81/2/5
f 86/3/5 83/3/5 82/3/5
f 86/2/5 82/2/5 85/2/5
f 87/2/5 84/2/5 83/2/5
f 87/3/5 83/3/5 86/3/5
f 88/3/5 80/3/5 84/3/5
f 88/2/5 84/2/5 87/2/5
f 89/3/5 87/3/5 86/3/5
f 89/3/5 86/3/5 85/3/5
f 89/3/5 88/3/5 87/3/5
f 89/3/5 85/3/5 73/3/5
f 90/3/5 88/3/5 89/3/5
f 91/3/5 88/3/5 90/3/5
f 92/3/5 80/3/5 88/3/5
f 92/3/5 88/3/5 91/3/5
f 93/3/5 91/3/5 90/3/5
f 93/2/5 92/2/5 91/2/5
f 94/3/5 80/3/5 92/3/5
f 94/2/5 92/2/5 93/2/5
f 95/3/5 93/3/5 90/3/5
f 95/3/5 94/3/5 93/3/5
f 96/3/5 80/3/5 94/3/5
f 96/3/5 94/3/5 95/3/5
f 97/3/6 98/3/6 99/3/6
f 99/3/6 98/3/6 100/3/6
f 97/3/6 99/3/6 101/3/6
f 99/2/6 100/2/6 101/2/6
f 100/3/6 98/3/6 102/3/6
f 101/2/6 100/2/6 102/2/6
f 102/3/6 98/3/6 103/3/6
f 97/3/6 101/3/6 105/3/6
f 103/3/6 104/3/6 105/3/6
f 102/3/6 103/3/6 105/3/6
f 101/3/6 102/3/6 105/3/6
f 105/3/6 104/3/6 106/3/6
f 106/3/6 104/3/6 107/3/6
f 107/3/6 104/3/6 108/3/6
f 97/3/6 105/3/6 109/3/6
f 105/2/6 106/2/6 109/2/6
f 106/3/6 107/3/6 110/3/6
f 109/2/6 106/2/6 110/2/6
f 107/2/6 108/2/6 111/2/6
f 110/3/6 107/3/6 111/3/6
f 108/3/6 104/3/6 112/3/6
f 111/2/6 108/2/6 112/2/6
f 110/3/6 111/3/6 113/3/6
f 109/3/6 110/3/6 113/3/6
f 111/3/6 112/3/6 113/3/6
f 97/3/6 109/3/6 113/3/6
f 113/3/6 112/3/6 114/3/6
f 114/3/6 112/3/6 115/3/6
f 112/3/6 104/3/6 116/3/6
f 115/3/6 112/3/6 116/3/6
f 114/3/6 115/3/6 117/3/6
f 115/2/6 116/2/6 117/2/6
f 116/3/6 104/3/6 118/3/6
f 117/2/6 116/2/6 118/2/6
f 114/3/6 117/3/6 119/3/6
f 117/3/6 118/3/6 119/3/6
f 118/3/6 104/3/6 120/3/6
f 119/3/6 118/3/6 120/3/6
