# MagicaVoxel @ Ephtracy

# material
mtllib b.mtl
usemtl palette

# normals
vn -1 0 0
vn 1 0 0
vn 0 0 1
vn 0 0 -1
vn 0 -1 0
vn 0 1 0

# texcoords
vt 0.306641 0.5
vt 0.962891 0.5
vt 0.994141 0.5

# verts
v -38 0 63
v -38 0 -50
v -38 1 62
v -38 1 49
v -38 1 48
v -38 1 35
v -38 1 34
v -38 1 21
v -38 1 20
v -38 1 7
v -38 1 6
v -38 1 -7
v -38 1 -8
v -38 1 -21
v -38 1 -22
v -38 1 -35
v -38 1 -36
v -38 1 -49
v -38 15 62
v -38 15 49
v -38 15 48
v -38 15 35
v -38 15 34
v -38 15 21
v -38 15 20
v -38 15 7
v -38 15 6
v -38 15 -7
v -38 15 -8
v -38 15 -21
v -38 15 -22
v -38 15 -35
v -38 15 -36
v -38 15 -49
v -38 16 63
v -38 16 -50
v -8 0 48
v -8 0 7
v -8 1 48
v -8 1 35
v -8 1 34
v -8 1 21
v -8 1 20
v -8 1 7
v -8 15 48
v -8 15 35
v -8 15 34
v -8 15 21
v -8 15 20
v -8 15 7
v -8 16 48
v -8 16 7
v -22 0 48
v -22 0 7
v -22 0 -8
v -22 0 -50
v -22 1 48
v -22 1 35
v -22 1 34
v -22 1 21
v -22 1 20
v -22 1 7
v -22 1 -8
v -22 1 -21
v -22 1 -22
v -22 1 -35
v -22 1 -36
v -22 1 -49
v -22 15 48
v -22 15 35
v -22 15 34
v -22 15 21
v -22 15 20
v -22 15 7
v -22 15 -8
v -22 15 -21
v -22 15 -22
v -22 15 -35
v -22 15 -36
v -22 15 -49
v -22 16 48
v -22 16 7
v -22 16 -8
v -22 16 -50
v 8 0 63
v 8 0 -8
v 8 1 62
v 8 1 49
v 8 1 48
v 8 1 35
v 8 1 34
v 8 1 21
v 8 1 20
v 8 1 7
v 8 1 6
v 8 1 -7
v 8 15 62
v 8 15 49
v 8 15 48
v 8 15 35
v 8 15 34
v 8 15 21
v 8 15 20
v 8 15 7
v 8 15 6
v 8 15 -7
v 8 16 63
v 8 16 -8
v -38 0 63
v -38 16 63
v -37 1 63
v -37 15 63
v -23 1 63
v -23 15 63
v -22 1 63
v -22 15 63
v -8 1 63
v -8 15 63
v -7 1 63
v -7 15 63
v 7 1 63
v 7 15 63
v 8 0 63
v 8 16 63
v -22 0 7
v -22 1 7
v -22 15 7
v -22 16 7
v -8 0 7
v -8 1 7
v -8 15 7
v -8 16 7
v -22 0 48
v -22 1 48
v -22 15 48
v -22 16 48
v -8 0 48
v -8 1 48
v -8 15 48
v -8 16 48
v -22 0 -8
v -22 1 -8
v -22 15 -8
v -22 16 -8
v -8 1 -8
v -8 15 -8
v -7 1 -8
v -7 15 -8
v 7 1 -8
v 7 15 -8
v 8 0 -8
v 8 16 -8
v -38 0 -50
v -38 16 -50
v -37 1 -50
v -37 15 -50
v -23 1 -50
v -23 15 -50
v -22 0 -50
v -22 16 -50
v -38 0 63
v 8 0 63
v -37 0 62
v -23 0 62
v -22 0 62
v -8 0 62
v -7 0 62
v 7 0 62
v -37 0 49
v -23 0 49
v -22 0 49
v -8 0 49
v -7 0 49
v 7 0 49
v -37 0 48
v -23 0 48
v -22 0 48
v -8 0 48
v -7 0 48
v 7 0 48
v -37 0 35
v -23 0 35
v -7 0 35
v 7 0 35
v -37 0 34
v -23 0 34
v -7 0 34
v 7 0 34
v -37 0 21
v -23 0 21
v -7 0 21
v 7 0 21
v -37 0 20
v -23 0 20
v -7 0 20
v 7 0 20
v -37 0 7
v -23 0 7
v -22 0 7
v -8 0 7
v -7 0 7
v 7 0 7
v -37 0 6
v -23 0 6
v -22 0 6
v -8 0 6
v -7 0 6
v 7 0 6
v -37 0 -7
v -23 0 -7
v -22 0 -7
v -8 0 -7
v -7 0 -7
v 7 0 -7
v -37 0 -8
v -23 0 -8
v -22 0 -8
v 8 0 -8
v -37 0 -21
v -23 0 -21
v -37 0 -22
v -23 0 -22
v -37 0 -35
v -23 0 -35
v -37 0 -36
v -23 0 -36
v -37 0 -49
v -23 0 -49
v -38 0 -50
v -22 0 -50
v -38 16 63
v 8 16 63
v -37 16 62
v -23 16 62
v -22 16 62
v -8 16 62
v -7 16 62
v 7 16 62
v -37 16 49
v -23 16 49
v -22 16 49
v -8 16 49
v -7 16 49
v 7 16 49
v -37 16 48
v -23 16 48
v -22 16 48
v -8 16 48
v -7 16 48
v 7 16 48
v -37 16 35
v -23 16 35
v -7 16 35
v 7 16 35
v -37 16 34
v -23 16 34
v -7 16 34
v 7 16 34
v -37 16 21
v -23 16 21
v -7 16 21
v 7 16 21
v -37 16 20
v -23 16 20
v -7 16 20
v 7 16 20
v -37 16 7
v -23 16 7
v -22 16 7
v -8 16 7
v -7 16 7
v 7 16 7
v -37 16 6
v -23 16 6
v -22 16 6
v -8 16 6
v -7 16 6
v 7 16 6
v -37 16 -7
v -23 16 -7
v -22 16 -7
v -8 16 -7
v -7 16 -7
v 7 16 -7
v -37 16 -8
v -23 16 -8
v -22 16 -8
v 8 16 -8
v -37 16 -21
v -23 16 -21
v -37 16 -22
v -23 16 -22
v -37 16 -35
v -23 16 -35
v -37 16 -36
v -23 16 -36
v -37 16 -49
v -23 16 -49
v -38 16 -50
v -22 16 -50

# faces
f 3/3/1 2/3/1 1/3/1
f 4/3/1 2/3/1 3/3/1
f 5/3/1 2/3/1 4/3/1
f 6/3/1 2/3/1 5/3/1
f 7/3/1 2/3/1 6/3/1
f 8/3/1 2/3/1 7/3/1
f 9/3/1 2/3/1 8/3/1
f 10/3/1 2/3/1 9/3/1
f 11/3/1 2/3/1 10/3/1
f 12/3/1 2/3/1 11/3/1
f 13/3/1 2/3/1 12/3/1
f 14/3/1 2/3/1 13/3/1
f 15/3/1 2/3/1 14/3/1
f 16/3/1 2/3/1 15/3/1
f 17/3/1 2/3/1 16/3/1
f 18/3/1 2/3/1 17/3/1
f 19/3/1 3/3/1 1/3/1
f 19/2/1 4/2/1 3/2/1
f 20/3/1 5/3/1 4/3/1
f 20/2/1 4/2/1 19/2/1
f 21/2/1 6/2/1 5/2/1
f 21/3/1 5/3/1 20/3/1
f 22/3/1 7/3/1 6/3/1
f 22/2/1 6/2/1 21/2/1
f 23/2/1 8/2/1 7/2/1
f 23/3/1 7/3/1 22/3/1
f 24/3/1 9/3/1 8/3/1
f 24/2/1 8/2/1 23/2/1
f 25/2/1 10/2/1 9/2/1
f 25/3/1 9/3/1 24/3/1
f 26/3/1 11/3/1 10/3/1
f 26/2/1 10/2/1 25/2/1
f 27/2/1 12/2/1 11/2/1
f 27/3/1 11/3/1 26/3/1
f 28/3/1 13/3/1 12/3/1
f 28/2/1 12/2/1 27/2/1
f 29/2/1 14/2/1 13/2/1
f 29/3/1 13/3/1 28/3/1
f 30/3/1 15/3/1 14/3/1
f 30/2/1 14/2/1 29/2/1
f 31/2/1 16/2/1 15/2/1
f 31/3/1 15/3/1 30/3/1
f 32/3/1 17/3/1 16/3/1
f 32/2/1 16/2/1 31/2/1
f 33/2/1 18/2/1 17/2/1
f 33/3/1 17/3/1 32/3/1
f 34/3/1 2/3/1 18/3/1
f 34/2/1 18/2/1 33/2/1
f 35/3/1 33/3/1 32/3/1
f 35/3/1 32/3/1 31/3/1
f 35/3/1 34/3/1 33/3/1
f 35/3/1 31/3/1 30/3/1
f 35/3/1 30/3/1 29/3/1
f 35/3/1 29/3/1 28/3/1
f 35/3/1 28/3/1 27/3/1
f 35/3/1 27/3/1 26/3/1
f 35/3/1 26/3/1 25/3/1
f 35/3/1 25/3/1 24/3/1
f 35/3/1 24/3/1 23/3/1
f 35/3/1 23/3/1 22/3/1
f 35/3/1 22/3/1 21/3/1
f 35/3/1 21/3/1 20/3/1
f 35/3/1 20/3/1 19/3/1
f 35/3/1 19/3/1 1/3/1
f 36/3/1 2/3/1 34/3/1
f 36/3/1 34/3/1 35/3/1
f 39/3/1 38/3/1 37/3/1
f 40/3/1 38/3/1 39/3/1
f 41/3/1 38/3/1 40/3/1
f 42/3/1 38/3/1 41/3/1
f 43/3/1 38/3/1 42/3/1
f 44/3/1 38/3/1 43/3/1
f 45/2/1 40/2/1 39/2/1
f 46/3/1 41/3/1 40/3/1
f 46/2/1 40/2/1 45/2/1
f 47/2/1 42/2/1 41/2/1
f 47/3/1 41/3/1 46/3/1
f 48/3/1 43/3/1 42/3/1
f 48/2/1 42/2/1 47/2/1
f 49/2/1 44/2/1 43/2/1
f 49/3/1 43/3/1 48/3/1
f 50/2/1 44/2/1 49/2/1
f 51/3/1 46/3/1 45/3/1
f 51/3/1 47/3/1 46/3/1
f 51/3/1 50/3/1 49/3/1
f 51/3/1 49/3/1 48/3/1
f 51/3/1 48/3/1 47/3/1
f 52/3/1 50/3/1 51/3/1
f 53/3/2 54/3/2 57/3/2
f 57/3/2 54/3/2 58/3/2
f 58/3/2 54/3/2 59/3/2
f 59/3/2 54/3/2 60/3/2
f 60/3/2 54/3/2 61/3/2
f 61/3/2 54/3/2 62/3/2
f 55/3/2 56/3/2 63/3/2
f 63/3/2 56/3/2 64/3/2
f 64/3/2 56/3/2 65/3/2
f 65/3/2 56/3/2 66/3/2
f 66/3/2 56/3/2 67/3/2
f 67/3/2 56/3/2 68/3/2
f 57/2/2 58/2/2 69/2/2
f 58/3/2 59/3/2 70/3/2
f 69/2/2 58/2/2 70/2/2
f 59/2/2 60/2/2 71/2/2
f 70/3/2 59/3/2 71/3/2
f 60/3/2 61/3/2 72/3/2
f 71/2/2 60/2/2 72/2/2
f 61/2/2 62/2/2 73/2/2
f 72/3/2 61/3/2 73/3/2
f 73/2/2 62/2/2 74/2/2
f 63/2/2 64/2/2 75/2/2
f 64/3/2 65/3/2 76/3/2
f 75/2/2 64/2/2 76/2/2
f 65/2/2 66/2/2 77/2/2
f 76/3/2 65/3/2 77/3/2
f 66/3/2 67/3/2 78/3/2
f 77/2/2 66/2/2 78/2/2
f 67/2/2 68/2/2 79/2/2
f 78/3/2 67/3/2 79/3/2
f 68/3/2 56/3/2 80/3/2
f 79/2/2 68/2/2 80/2/2
f 71/3/2 72/3/2 81/3/2
f 69/3/2 70/3/2 81/3/2
f 70/3/2 71/3/2 81/3/2
f 72/3/2 73/3/2 81/3/2
f 73/3/2 74/3/2 81/3/2
f 81/3/2 74/3/2 82/3/2
f 78/3/2 79/3/2 83/3/2
f 79/3/2 80/3/2 83/3/2
f 77/3/2 78/3/2 83/3/2
f 75/3/2 76/3/2 83/3/2
f 76/3/2 77/3/2 83/3/2
f 80/3/2 56/3/2 84/3/2
f 83/3/2 80/3/2 84/3/2
f 85/3/2 86/3/2 87/3/2
f 87/3/2 86/3/2 88/3/2
f 88/3/2 86/3/2 89/3/2
f 89/3/2 86/3/2 90/3/2
f 90/3/2 86/3/2 91/3/2
f 91/3/2 86/3/2 92/3/2
f 92/3/2 86/3/2 93/3/2
f 93/3/2 86/3/2 94/3/2
f 94/3/2 86/3/2 95/3/2
f 95/3/2 86/3/2 96/3/2
f 85/3/2 87/3/2 97/3/2
f 87/2/2 88/2/2 97/2/2
f 88/3/2 89/3/2 98/3/2
f 97/2/2 88/2/2 98/2/2
f 89/2/2 90/2/2 99/2/2
f 98/3/2 89/3/2 99/3/2
f 90/3/2 91/3/2 100/3/2
f 99/2/2 90/2/2 100/2/2
f 91/2/2 92/2/2 101/2/2
f 100/3/2 91/3/2 101/3/2
f 92/3/2 93/3/2 102/3/2
f 101/2/2 92/2/2 102/2/2
f 93/2/2 94/2/2 103/2/2
f 102/3/2 93/3/2 103/3/2
f 94/3/2 95/3/2 104/3/2
f 103/2/2 94/2/2 104/2/2
f 95/2/2 96/2/2 105/2/2
f 104/3/2 95/3/2 105/3/2
f 96/3/2 86/3/2 106/3/2
f 105/2/2 96/2/2 106/2/2
f 104/3/2 105/3/2 107/3/2
f 103/3/2 104/3/2 107/3/2
f 105/3/2 106/3/2 107/3/2
f 102/3/2 103/3/2 107/3/2
f 101/3/2 102/3/2 107/3/2
f 100/3/2 101/3/2 107/3/2
f 99/3/2 100/3/2 107/3/2
f 98/3/2 99/3/2 107/3/2
f 97/3/2 98/3/2 107/3/2
f 85/3/2 97/3/2 107/3/2
f 106/3/2 86/3/2 108/3/2
f 107/3/2 106/3/2 108/3/2
f 111/3/3 110/3/3 109/3/3
f 112/3/3 110/3/3 111/3/3
f 113/3/3 111/3/3 109/3/3
f 113/2/3 112/2/3 111/2/3
f 114/3/3 110/3/3 112/3/3
f 114/2/3 112/2/3 113/2/3
f 115/3/3 113/3/3 109/3/3
f 115/3/3 114/3/3 113/3/3
f 116/3/3 110/3/3 114/3/3
f 116/3/3 114/3/3 115/3/3
f 117/3/3 115/3/3 109/3/3
f 117/2/3 116/2/3 115/2/3
f 118/3/3 110/3/3 116/3/3
f 118/2/3 116/2/3 117/2/3
f 119/3/3 117/3/3 109/3/3
f 119/3/3 118/3/3 117/3/3
f 120/3/3 110/3/3 118/3/3
f 120/3/3 118/3/3 119/3/3
f 121/3/3 119/3/3 109/3/3
f 121/2/3 120/2/3 119/2/3
f 122/3/3 110/3/3 120/3/3
f 122/2/3 120/2/3 121/2/3
f 123/3/3 121/3/3 109/3/3
f 123/3/3 122/3/3 121/3/3
f 124/3/3 110/3/3 122/3/3
f 124/3/3 122/3/3 123/3/3
f 129/3/3 126/3/3 125/3/3
f 130/2/3 127/2/3 126/2/3
f 130/3/3 126/3/3 129/3/3
f 131/3/3 128/3/3 127/3/3
f 131/2/3 127/2/3 130/2/3
f 132/3/3 128/3/3 131/3/3
f 133/3/4 134/3/4 137/3/4
f 134/2/4 135/2/4 138/2/4
f 137/3/4 134/3/4 138/3/4
f 135/3/4 136/3/4 139/3/4
f 138/2/4 135/2/4 139/2/4
f 139/3/4 136/3/4 140/3/4
f 141/3/4 142/3/4 145/3/4
f 142/2/4 143/2/4 145/2/4
f 143/3/4 144/3/4 146/3/4
f 145/2/4 143/2/4 146/2/4
f 141/3/4 145/3/4 147/3/4
f 145/3/4 146/3/4 147/3/4
f 146/3/4 144/3/4 148/3/4
f 147/3/4 146/3/4 148/3/4
f 141/3/4 147/3/4 149/3/4
f 147/2/4 148/2/4 149/2/4
f 148/3/4 144/3/4 150/3/4
f 149/2/4 148/2/4 150/2/4
f 141/3/4 149/3/4 151/3/4
f 149/3/4 150/3/4 151/3/4
f 150/3/4 144/3/4 152/3/4
f 151/3/4 150/3/4 152/3/4
f 153/3/4 154/3/4 155/3/4
f 155/3/4 154/3/4 156/3/4
f 153/3/4 155/3/4 157/3/4
f 155/2/4 156/2/4 157/2/4
f 156/3/4 154/3/4 158/3/4
f 157/2/4 156/2/4 158/2/4
f 153/3/4 157/3/4 159/3/4
f 157/3/4 158/3/4 159/3/4
f 158/3/4 154/3/4 160/3/4
f 159/3/4 158/3/4 160/3/4
f 163/3/5 162/3/5 161/3/5
f 164/3/5 162/3/5 163/3/5
f 165/3/5 162/3/5 164/3/5
f 166/3/5 162/3/5 165/3/5
f 167/3/5 162/3/5 166/3/5
f 168/3/5 162/3/5 167/3/5
f 169/3/5 163/3/5 161/3/5
f 169/2/5 164/2/5 163/2/5
f 170/3/5 165/3/5 164/3/5
f 170/2/5 164/2/5 169/2/5
f 171/2/5 166/2/5 165/2/5
f 171/3/5 165/3/5 170/3/5
f 172/3/5 167/3/5 166/3/5
f 172/2/5 166/2/5 171/2/5
f 173/2/5 168/2/5 167/2/5
f 173/3/5 167/3/5 172/3/5
f 174/3/5 162/3/5 168/3/5
f 174/2/5 168/2/5 173/2/5
f 175/3/5 173/3/5 172/3/5
f 175/3/5 172/3/5 171/3/5
f 175/3/5 174/3/5 173/3/5
f 175/3/5 171/3/5 170/3/5
f 175/3/5 170/3/5 169/3/5
f 175/3/5 169/3/5 161/3/5
f 176/3/5 174/3/5 175/3/5
f 177/3/5 174/3/5 176/3/5
f 178/3/5 174/3/5 177/3/5
f 179/3/5 174/3/5 178/3/5
f 180/3/5 162/3/5 174/3/5
f 180/3/5 174/3/5 179/3/5
f 181/3/5 175/3/5 161/3/5
f 181/2/5 176/2/5 175/2/5
f 182/3/5 177/3/5 176/3/5
f 182/2/5 176/2/5 181/2/5
f 183/3/5 179/3/5 178/3/5
f 183/2/5 180/2/5 179/2/5
f 184/3/5 162/3/5 180/3/5
f 184/2/5 180/2/5 183/2/5
f 185/3/5 182/3/5 181/3/5
f 185/3/5 181/3/5 161/3/5
f 186/3/5 177/3/5 182/3/5
f 186/3/5 182/3/5 185/3/5
f 187/3/5 183/3/5 178/3/5
f 187/3/5 184/3/5 183/3/5
f 188/3/5 162/3/5 184/3/5
f 188/3/5 184/3/5 187/3/5
f 189/3/5 185/3/5 161/3/5
f 189/2/5 186/2/5 185/2/5
f 190/3/5 177/3/5 186/3/5
f 190/2/5 186/2/5 189/2/5
f 191/3/5 187/3/5 178/3/5
f 191/2/5 188/2/5 187/2/5
f 192/3/5 162/3/5 188/3/5
f 192/2/5 188/2/5 191/2/5
f 193/3/5 189/3/5 161/3/5
f 193/3/5 190/3/5 189/3/5
f 194/3/5 177/3/5 190/3/5
f 194/3/5 190/3/5 193/3/5
f 195/3/5 191/3/5 178/3/5
f 195/3/5 192/3/5 191/3/5
f 196/3/5 162/3/5 192/3/5
f 196/3/5 192/3/5 195/3/5
f 197/3/5 193/3/5 161/3/5
f 197/2/5 194/2/5 193/2/5
f 198/3/5 177/3/5 194/3/5
f 198/2/5 194/2/5 197/2/5
f 199/3/5 177/3/5 198/3/5
f 200/3/5 195/3/5 178/3/5
f 201/2/5 196/2/5 195/2/5
f 201/3/5 195/3/5 200/3/5
f 202/3/5 162/3/5 196/3/5
f 202/2/5 196/2/5 201/2/5
f 203/3/5 197/3/5 161/3/5
f 203/3/5 199/3/5 198/3/5
f 203/3/5 202/3/5 201/3/5
f 203/3/5 201/3/5 200/3/5
f 203/3/5 198/3/5 197/3/5
f 203/3/5 200/3/5 199/3/5
f 204/3/5 202/3/5 203/3/5
f 205/3/5 202/3/5 204/3/5
f 206/3/5 202/3/5 205/3/5
f 207/3/5 202/3/5 206/3/5
f 208/3/5 162/3/5 202/3/5
f 208/3/5 202/3/5 207/3/5
f 209/3/5 203/3/5 161/3/5
f 209/2/5 204/2/5 203/2/5
f 210/3/5 205/3/5 204/3/5
f 210/2/5 204/2/5 209/2/5
f 211/2/5 206/2/5 205/2/5
f 211/3/5 205/3/5 210/3/5
f 212/3/5 207/3/5 206/3/5
f 212/2/5 206/2/5 211/2/5
f 213/2/5 208/2/5 207/2/5
f 213/3/5 207/3/5 212/3/5
f 214/3/5 162/3/5 208/3/5
f 214/2/5 208/2/5 213/2/5
f 215/3/5 211/3/5 210/3/5
f 215/3/5 213/3/5 212/3/5
f 215/3/5 214/3/5 213/3/5
f 215/3/5 210/3/5 209/3/5
f 215/3/5 209/3/5 161/3/5
f 215/3/5 212/3/5 211/3/5
f 216/3/5 214/3/5 215/3/5
f 217/3/5 214/3/5 216/3/5
f 218/3/5 162/3/5 214/3/5
f 218/3/5 214/3/5 217/3/5
f 219/3/5 215/3/5 161/3/5
f 219/2/5 216/2/5 215/2/5
f 220/3/5 217/3/5 216/3/5
f 220/2/5 216/2/5 219/2/5
f 221/3/5 219/3/5 161/3/5
f 221/3/5 220/3/5 219/3/5
f 222/3/5 217/3/5 220/3/5
f 222/3/5 220/3/5 221/3/5
f 223/3/5 221/3/5 161/3/5
f 223/2/5 222/2/5 221/2/5
f 224/3/5 217/3/5 222/3/5
f 224/2/5 222/2/5 223/2/5
f 225/3/5 223/3/5 161/3/5
f 225/3/5 224/3/5 223/3/5
f 226/3/5 217/3/5 224/3/5
f 226/3/5 224/3/5 225/3/5
f 227/3/5 225/3/5 161/3/5
f 227/2/5 226/2/5 225/2/5
f 228/3/5 217/3/5 226/3/5
f 228/2/5 226/2/5 227/2/5
f 229/3/5 227/3/5 161/3/5
f 229/3/5 228/3/5 227/3/5
f 230/3/5 217/3/5 228/3/5
f 230/3/5 228/3/5 229/3/5
f 231/3/6 232/3/6 233/3/6
f 233/3/6 232/3/6 234/3/6
f 234/3/6 232/3/6 235/3/6
f 235/3/6 232/3/6 236/3/6
f 236/3/6 232/3/6 237/3/6
f 237/3/6 232/3/6 238/3/6
f 231/3/6 233/3/6 239/3/6
f 233/2/6 234/2/6 239/2/6
f 234/3/6 235/3/6 240/3/6
f 239/2/6 234/2/6 240/2/6
f 235/2/6 236/2/6 241/2/6
f 240/3/6 235/3/6 241/3/6
f 236/3/6 237/3/6 242/3/6
f 241/2/6 236/2/6 242/2/6
f 237/2/6 238/2/6 243/2/6
f 242/3/6 237/3/6 243/3/6
f 238/3/6 232/3/6 244/3/6
f 243/2/6 238/2/6 244/2/6
f 242/3/6 243/3/6 245/3/6
f 241/3/6 242/3/6 245/3/6
f 243/3/6 244/3/6 245/3/6
f 240/3/6 241/3/6 245/3/6
f 239/3/6 240/3/6 245/3/6
f 231/3/6 239/3/6 245/3/6
f 245/3/6 244/3/6 246/3/6
f 246/3/6 244/3/6 247/3/6
f 247/3/6 244/3/6 248/3/6
f 248/3/6 244/3/6 249/3/6
f 244/3/6 232/3/6 250/3/6
f 249/3/6 244/3/6 250/3/6
f 231/3/6 245/3/6 251/3/6
f 245/2/6 246/2/6 251/2/6
f 246/3/6 247/3/6 252/3/6
f 251/2/6 246/2/6 252/2/6
f 248/3/6 249/3/6 253/3/6
f 249/2/6 250/2/6 253/2/6
f 250/3/6 232/3/6 254/3/6
f 253/2/6 250/2/6 254/2/6
f 251/3/6 252/3/6 255/3/6
f 231/3/6 251/3/6 255/3/6
f 252/3/6 247/3/6 256/3/6
f 255/3/6 252/3/6 256/3/6
f 248/3/6 253/3/6 257/3/6
f 253/3/6 254/3/6 257/3/6
f 254/3/6 232/3/6 258/3/6
f 257/3/6 254/3/6 258/3/6
f 231/3/6 255/3/6 259/3/6
f 255/2/6 256/2/6 259/2/6
f 256/3/6 247/3/6 260/3/6
f 259/2/6 256/2/6 260/2/6
f 248/3/6 257/3/6 261/3/6
f 257/2/6 258/2/6 261/2/6
f 258/3/6 232/3/6 262/3/6
f 261/2/6 258/2/6 262/2/6
f 231/3/6 259/3/6 263/3/6
f 259/3/6 260/3/6 263/3/6
f 260/3/6 247/3/6 264/3/6
f 263/3/6 260/3/6 264/3/6
f 248/3/6 261/3/6 265/3/6
f 261/3/6 262/3/6 265/3/6
f 262/3/6 232/3/6 266/3/6
f 265/3/6 262/3/6 266/3/6
f 231/3/6 263/3/6 267/3/6
f 263/2/6 264/2/6 267/2/6
f 264/3/6 247/3/6 268/3/6
f 267/2/6 264/2/6 268/2/6
f 268/3/6 247/3/6 269/3/6
f 248/3/6 265/3/6 270/3/6
f 265/2/6 266/2/6 271/2/6
f 270/3/6 265/3/6 271/3/6
f 266/3/6 232/3/6 272/3/6
f 271/2/6 266/2/6 272/2/6
f 231/3/6 267/3/6 273/3/6
f 268/3/6 269/3/6 273/3/6
f 271/3/6 272/3/6 273/3/6
f 270/3/6 271/3/6 273/3/6
f 267/3/6 268/3/6 273/3/6
f 269/3/6 270/3/6 273/3/6
f 273/3/6 272/3/6 274/3/6
f 274/3/6 272/3/6 275/3/6
f 275/3/6 272/3/6 276/3/6
f 276/3/6 272/3/6 277/3/6
f 272/3/6 232/3/6 278/3/6
f 277/3/6 272/3/6 278/3/6
f 231/3/6 273/3/6 279/3/6
f 273/2/6 274/2/6 279/2/6
f 274/3/6 275/3/6 280/3/6
f 279/2/6 274/2/6 280/2/6
f 275/2/6 276/2/6 281/2/6
f 280/3/6 275/3/6 281/3/6
f 276/3/6 277/3/6 282/3/6
f 281/2/6 276/2/6 282/2/6
f 277/2/6 278/2/6 283/2/6
f 282/3/6 277/3/6 283/3/6
f 278/3/6 232/3/6 284/3/6
f 283/2/6 278/2/6 284/2/6
f 280/3/6 281/3/6 285/3/6
f 282/3/6 283/3/6 285/3/6
f 283/3/6 284/3/6 285/3/6
f 279/3/6 280/3/6 285/3/6
f 231/3/6 279/3/6 285/3/6
f 281/3/6 282/3/6 285/3/6
f 285/3/6 284/3/6 286/3/6
f 286/3/6 284/3/6 287/3/6
f 284/3/6 232/3/6 288/3/6
f 287/3/6 284/3/6 288/3/6
f 231/3/6 285/3/6 289/3/6
f 285/2/6 286/2/6 289/2/6
f 286/3/6 287/3/6 290/3/6
f 289/2/6 286/2/6 290/2/6
f 231/3/6 289/3/6 291/3/6
f 289/3/6 290/3/6 291/3/6
f 290/3/6 287/3/6 292/3/6
f 291/3/6 290/3/6 292/3/6
f 231/3/6 291/3/6 293/3/6
f 291/2/6 292/2/6 293/2/6
f 292/3/6 287/3/6 294/3/6
f 293/2/6 292/2/6 294/2/6
f 231/3/6 293/3/6 295/3/6
f 293/3/6 294/3/6 295/3/6
f 294/3/6 287/3/6 296/3/6
f 295/3/6 294/3/6 296/3/6
f 231/3/6 295/3/6 297/3/6
f 295/2/6 296/2/6 297/2/6
f 296/3/6 287/3/6 298/3/6
f 297/2/6 296/2/6 298/2/6
f 231/3/6 297/3/6 299/3/6
f 297/3/6 298/3/6 299/3/6
f 298/3/6 287/3/6 300/3/6
f 299/3/6 298/3/6 300/3/6
