# MagicaVoxel @ Ephtracy

# material
mtllib c.mtl
usemtl palette

# normals
vn -1 0 0
vn 1 0 0
vn 0 0 1
vn 0 0 -1
vn 0 -1 0
vn 0 1 0

# texcoords
vt 0.306641 0.5
vt 0.962891 0.5
vt 0.994141 0.5

# verts
v -38 0 63
v -38 0 -8
v -38 1 62
v -38 1 49
v -38 1 48
v -38 1 35
v -38 1 34
v -38 1 21
v -38 1 20
v -38 1 7
v -38 1 6
v -38 1 -7
v -38 15 62
v -38 15 49
v -38 15 48
v -38 15 35
v -38 15 34
v -38 15 21
v -38 15 20
v -38 15 7
v -38 15 6
v -38 15 -7
v -38 16 63
v -38 16 -8
v -22 0 48
v -22 0 7
v -22 1 48
v -22 1 35
v -22 1 34
v -22 1 21
v -22 1 20
v -22 1 7
v -22 15 48
v -22 15 35
v -22 15 34
v -22 15 21
v -22 15 20
v -22 15 7
v -22 16 48
v -22 16 7
v -7 0 63
v -7 0 48
v -7 0 7
v -7 0 -8
v -7 1 62
v -7 1 49
v -7 1 6
v -7 1 -7
v -7 15 62
v -7 15 49
v -7 15 6
v -7 15 -7
v -7 16 63
v -7 16 48
v -7 16 7
v -7 16 -8
v -38 0 63
v -38 16 63
v -37 1 63
v -37 15 63
v -23 1 63
v -23 15 63
v -22 1 63
v -22 15 63
v -8 1 63
v -8 15 63
v -7 0 63
v -7 16 63
v -22 0 7
v -22 1 7
v -22 15 7
v -22 16 7
v -8 1 7
v -8 15 7
v -7 0 7
v -7 16 7
v -22 0 48
v -22 1 48
v -22 15 48
v -22 16 48
v -8 1 48
v -8 15 48
v -7 0 48
v -7 16 48
v -38 0 -8
v -38 16 -8
v -37 1 -8
v -37 15 -8
v -23 1 -8
v -23 15 -8
v -22 1 -8
v -22 15 -8
v -8 1 -8
v -8 15 -8
v -7 0 -8
v -7 16 -8
v -38 0 63
v -7 0 63
v -37 0 62
v -23 0 62
v -22 0 62
v -8 0 62
v -37 0 49
v -23 0 49
v -22 0 49
v -8 0 49
v -37 0 48
v -23 0 48
v -22 0 48
v -7 0 48
v -37 0 35
v -23 0 35
v -37 0 34
v -23 0 34
v -37 0 21
v -23 0 21
v -37 0 20
v -23 0 20
v -37 0 7
v -23 0 7
v -22 0 7
v -7 0 7
v -37 0 6
v -23 0 6
v -22 0 6
v -8 0 6
v -37 0 -7
v -23 0 -7
v -22 0 -7
v -8 0 -7
v -38 0 -8
v -7 0 -8
v -38 16 63
v -7 16 63
v -37 16 62
v -23 16 62
v -22 16 62
v -8 16 62
v -37 16 49
v -23 16 49
v -22 16 49
v -8 16 49
v -37 16 48
v -23 16 48
v -22 16 48
v -7 16 48
v -37 16 35
v -23 16 35
v -37 16 34
v -23 16 34
v -37 16 21
v -23 16 21
v -37 16 20
v -23 16 20
v -37 16 7
v -23 16 7
v -22 16 7
v -7 16 7
v -37 16 6
v -23 16 6
v -22 16 6
v -8 16 6
v -37 16 -7
v -23 16 -7
v -22 16 -7
v -8 16 -7
v -38 16 -8
v -7 16 -8

# faces
f 3/3/1 2/3/1 1/3/1
f 4/3/1 2/3/1 3/3/1
f 5/3/1 2/3/1 4/3/1
f 6/3/1 2/3/1 5/3/1
f 7/3/1 2/3/1 6/3/1
f 8/3/1 2/3/1 7/3/1
f 9/3/1 2/3/1 8/3/1
f 10/3/1 2/3/1 9/3/1
f 11/3/1 2/3/1 10/3/1
f 12/3/1 2/3/1 11/3/1
f 13/3/1 3/3/1 1/3/1
f 13/2/1 4/2/1 3/2/1
f 14/3/1 5/3/1 4/3/1
f 14/2/1 4/2/1 13/2/1
f 15/2/1 6/2/1 5/2/1
f 15/3/1 5/3/1 14/3/1
f 16/3/1 7/3/1 6/3/1
f 16/2/1 6/2/1 15/2/1
f 17/2/1 8/2/1 7/2/1
f 17/3/1 7/3/1 16/3/1
f 18/3/1 9/3/1 8/3/1
f 18/2/1 8/2/1 17/2/1
f 19/2/1 10/2/1 9/2/1
f 19/3/1 9/3/1 18/3/1
f 20/3/1 11/3/1 10/3/1
f 20/2/1 10/2/1 19/2/1
f 21/2/1 12/2/1 11/2/1
f 21/3/1 11/3/1 20/3/1
f 22/3/1 2/3/1 12/3/1
f 22/2/1 12/2/1 21/2/1
f 23/3/1 21/3/1 20/3/1
f 23/3/1 20/3/1 19/3/1
f 23/3/1 22/3/1 21/3/1
f 23/3/1 19/3/1 18/3/1
f 23/3/1 18/3/1 17/3/1
f 23/3/1 17/3/1 16/3/1
f 23/3/1 16/3/1 15/3/1
f 23/3/1 15/3/1 14/3/1
f 23/3/1 14/3/1 13/3/1
f 23/3/1 13/3/1 1/3/1
f 24/3/1 2/3/1 22/3/1
f 24/3/1 22/3/1 23/3/1
f 25/3/2 26/3/2 27/3/2
f 27/3/2 26/3/2 28/3/2
f 28/3/2 26/3/2 29/3/2
f 29/3/2 26/3/2 30/3/2
f 30/3/2 26/3/2 31/3/2
f 31/3/2 26/3/2 32/3/2
f 27/2/2 28/2/2 33/2/2
f 28/3/2 29/3/2 34/3/2
f 33/2/2 28/2/2 34/2/2
f 29/2/2 30/2/2 35/2/2
f 34/3/2 29/3/2 35/3/2
f 30/3/2 31/3/2 36/3/2
f 35/2/2 30/2/2 36/2/2
f 31/2/2 32/2/2 37/2/2
f 36/3/2 31/3/2 37/3/2
f 37/2/2 32/2/2 38/2/2
f 33/3/2 34/3/2 39/3/2
f 34/3/2 35/3/2 39/3/2
f 37/3/2 38/3/2 39/3/2
f 36/3/2 37/3/2 39/3/2
f 35/3/2 36/3/2 39/3/2
f 39/3/2 38/3/2 40/3/2
f 41/3/2 42/3/2 45/3/2
f 45/3/2 42/3/2 46/3/2
f 43/3/2 44/3/2 47/3/2
f 47/3/2 44/3/2 48/3/2
f 41/3/2 45/3/2 49/3/2
f 45/2/2 46/2/2 49/2/2
f 46/3/2 42/3/2 50/3/2
f 49/2/2 46/2/2 50/2/2
f 47/2/2 48/2/2 51/2/2
f 43/3/2 47/3/2 51/3/2
f 48/3/2 44/3/2 52/3/2
f 51/2/2 48/2/2 52/2/2
f 41/3/2 49/3/2 53/3/2
f 49/3/2 50/3/2 53/3/2
f 50/3/2 42/3/2 54/3/2
f 53/3/2 50/3/2 54/3/2
f 43/3/2 51/3/2 55/3/2
f 51/3/2 52/3/2 55/3/2
f 52/3/2 44/3/2 56/3/2
f 55/3/2 52/3/2 56/3/2
f 59/3/3 58/3/3 57/3/3
f 60/3/3 58/3/3 59/3/3
f 61/3/3 59/3/3 57/3/3
f 61/2/3 60/2/3 59/2/3
f 62/3/3 58/3/3 60/3/3
f 62/2/3 60/2/3 61/2/3
f 63/3/3 61/3/3 57/3/3
f 63/3/3 62/3/3 61/3/3
f 64/3/3 58/3/3 62/3/3
f 64/3/3 62/3/3 63/3/3
f 65/3/3 63/3/3 57/3/3
f 65/2/3 64/2/3 63/2/3
f 66/3/3 58/3/3 64/3/3
f 66/2/3 64/2/3 65/2/3
f 67/3/3 65/3/3 57/3/3
f 67/3/3 66/3/3 65/3/3
f 68/3/3 58/3/3 66/3/3
f 68/3/3 66/3/3 67/3/3
f 73/3/3 70/3/3 69/3/3
f 73/2/3 71/2/3 70/2/3
f 74/3/3 72/3/3 71/3/3
f 74/2/3 71/2/3 73/2/3
f 75/3/3 73/3/3 69/3/3
f 75/3/3 74/3/3 73/3/3
f 76/3/3 72/3/3 74/3/3
f 76/3/3 74/3/3 75/3/3
f 77/3/4 78/3/4 81/3/4
f 78/2/4 79/2/4 81/2/4
f 79/3/4 80/3/4 82/3/4
f 81/2/4 79/2/4 82/2/4
f 77/3/4 81/3/4 83/3/4
f 81/3/4 82/3/4 83/3/4
f 82/3/4 80/3/4 84/3/4
f 83/3/4 82/3/4 84/3/4
f 85/3/4 86/3/4 87/3/4
f 87/3/4 86/3/4 88/3/4
f 85/3/4 87/3/4 89/3/4
f 87/2/4 88/2/4 89/2/4
f 88/3/4 86/3/4 90/3/4
f 89/2/4 88/2/4 90/2/4
f 85/3/4 89/3/4 91/3/4
f 89/3/4 90/3/4 91/3/4
f 90/3/4 86/3/4 92/3/4
f 91/3/4 90/3/4 92/3/4
f 85/3/4 91/3/4 93/3/4
f 91/2/4 92/2/4 93/2/4
f 92/3/4 86/3/4 94/3/4
f 93/2/4 92/2/4 94/2/4
f 85/3/4 93/3/4 95/3/4
f 93/3/4 94/3/4 95/3/4
f 94/3/4 86/3/4 96/3/4
f 95/3/4 94/3/4 96/3/4
f 99/3/5 98/3/5 97/3/5
f 100/3/5 98/3/5 99/3/5
f 101/3/5 98/3/5 100/3/5
f 102/3/5 98/3/5 101/3/5
f 103/3/5 99/3/5 97/3/5
f 103/2/5 100/2/5 99/2/5
f 104/3/5 101/3/5 100/3/5
f 104/2/5 100/2/5 103/2/5
f 105/2/5 102/2/5 101/2/5
f 105/3/5 101/3/5 104/3/5
f 106/3/5 98/3/5 102/3/5
f 106/2/5 102/2/5 105/2/5
f 107/3/5 105/3/5 104/3/5
f 107/3/5 104/3/5 103/3/5
f 107/3/5 106/3/5 105/3/5
f 107/3/5 103/3/5 97/3/5
f 108/3/5 106/3/5 107/3/5
f 109/3/5 106/3/5 108/3/5
f 110/3/5 98/3/5 106/3/5
f 110/3/5 106/3/5 109/3/5
f 111/3/5 107/3/5 97/3/5
f 111/2/5 108/2/5 107/2/5
f 112/3/5 109/3/5 108/3/5
f 112/2/5 108/2/5 111/2/5
f 113/3/5 111/3/5 97/3/5
f 113/3/5 112/3/5 111/3/5
f 114/3/5 109/3/5 112/3/5
f 114/3/5 112/3/5 113/3/5
f 115/3/5 113/3/5 97/3/5
f 115/2/5 114/2/5 113/2/5
f 116/3/5 109/3/5 114/3/5
f 116/2/5 114/2/5 115/2/5
f 117/3/5 115/3/5 97/3/5
f 117/3/5 116/3/5 115/3/5
f 118/3/5 109/3/5 116/3/5
f 118/3/5 116/3/5 117/3/5
f 119/3/5 117/3/5 97/3/5
f 119/2/5 118/2/5 117/2/5
f 120/3/5 109/3/5 118/3/5
f 120/2/5 118/2/5 119/2/5
f 121/3/5 109/3/5 120/3/5
f 123/3/5 119/3/5 97/3/5
f 123/3/5 122/3/5 121/3/5
f 123/3/5 121/3/5 120/3/5
f 123/3/5 120/3/5 119/3/5
f 124/3/5 122/3/5 123/3/5
f 125/3/5 122/3/5 124/3/5
f 126/3/5 122/3/5 125/3/5
f 127/3/5 123/3/5 97/3/5
f 127/2/5 124/2/5 123/2/5
f 128/3/5 125/3/5 124/3/5
f 128/2/5 124/2/5 127/2/5
f 129/2/5 126/2/5 125/2/5
f 129/3/5 125/3/5 128/3/5
f 130/3/5 122/3/5 126/3/5
f 130/2/5 126/2/5 129/2/5
f 131/3/5 129/3/5 128/3/5
f 131/3/5 128/3/5 127/3/5
f 131/3/5 130/3/5 129/3/5
f 131/3/5 127/3/5 97/3/5
f 132/3/5 122/3/5 130/3/5
f 132/3/5 130/3/5 131/3/5
f 133/3/6 134/3/6 135/3/6
f 135/3/6 134/3/6 136/3/6
f 136/3/6 134/3/6 137/3/6
f 137/3/6 134/3/6 138/3/6
f 133/3/6 135/3/6 139/3/6
f 135/2/6 136/2/6 139/2/6
f 136/3/6 137/3/6 140/3/6
f 139/2/6 136/2/6 140/2/6
f 137/2/6 138/2/6 141/2/6
f 140/3/6 137/3/6 141/3/6
f 138/3/6 134/3/6 142/3/6
f 141/2/6 138/2/6 142/2/6
f 140/3/6 141/3/6 143/3/6
f 139/3/6 140/3/6 143/3/6
f 141/3/6 142/3/6 143/3/6
f 133/3/6 139/3/6 143/3/6
f 143/3/6 142/3/6 144/3/6
f 144/3/6 142/3/6 145/3/6
f 142/3/6 134/3/6 146/3/6
f 145/3/6 142/3/6 146/3/6
f 133/3/6 143/3/6 147/3/6
f 143/2/6 144/2/6 147/2/6
f 144/3/6 145/3/6 148/3/6
f 147/2/6 144/2/6 148/2/6
f 133/3/6 147/3/6 149/3/6
f 147/3/6 148/3/6 149/3/6
f 148/3/6 145/3/6 150/3/6
f 149/3/6 148/3/6 150/3/6
f 133/3/6 149/3/6 151/3/6
f 149/2/6 150/2/6 151/2/6
f 150/3/6 145/3/6 152/3/6
f 151/2/6 150/2/6 152/2/6
f 133/3/6 151/3/6 153/3/6
f 151/3/6 152/3/6 153/3/6
f 152/3/6 145/3/6 154/3/6
f 153/3/6 152/3/6 154/3/6
f 133/3/6 153/3/6 155/3/6
f 153/2/6 154/2/6 155/2/6
f 154/3/6 145/3/6 156/3/6
f 155/2/6 154/2/6 156/2/6
f 156/3/6 145/3/6 157/3/6
f 133/3/6 155/3/6 159/3/6
f 157/3/6 158/3/6 159/3/6
f 156/3/6 157/3/6 159/3/6
f 155/3/6 156/3/6 159/3/6
f 159/3/6 158/3/6 160/3/6
f 160/3/6 158/3/6 161/3/6
f 161/3/6 158/3/6 162/3/6
f 133/3/6 159/3/6 163/3/6
f 159/2/6 160/2/6 163/2/6
f 160/3/6 161/3/6 164/3/6
f 163/2/6 160/2/6 164/2/6
f 161/2/6 162/2/6 165/2/6
f 164/3/6 161/3/6 165/3/6
f 162/3/6 158/3/6 166/3/6
f 165/2/6 162/2/6 166/2/6
f 164/3/6 165/3/6 167/3/6
f 163/3/6 164/3/6 167/3/6
f 165/3/6 166/3/6 167/3/6
f 133/3/6 163/3/6 167/3/6
f 166/3/6 158/3/6 168/3/6
f 167/3/6 166/3/6 168/3/6
