# MagicaVoxel @ Ephtracy

# material
mtllib g.mtl
usemtl palette

# normals
vn -1 0 0
vn 1 0 0
vn 0 0 1
vn 0 0 -1
vn 0 -1 0
vn 0 1 0

# texcoords
vt 0.306641 0.5
vt 0.962891 0.5
vt 0.994141 0.5

# verts
v -8 0 63
v -8 0 34
v -8 0 21
v -8 0 -50
v -8 1 62
v -8 1 49
v -8 1 48
v -8 1 35
v -8 1 20
v -8 1 7
v -8 1 6
v -8 1 -7
v -8 1 -8
v -8 1 -21
v -8 1 -22
v -8 1 -35
v -8 1 -36
v -8 1 -49
v -8 15 62
v -8 15 49
v -8 15 48
v -8 15 35
v -8 15 20
v -8 15 7
v -8 15 6
v -8 15 -7
v -8 15 -8
v -8 15 -21
v -8 15 -22
v -8 15 -35
v -8 15 -36
v -8 15 -49
v -8 16 63
v -8 16 34
v -8 16 21
v -8 16 -50
v 22 0 48
v 22 0 21
v 22 0 6
v 22 0 -35
v 22 1 48
v 22 1 35
v 22 1 34
v 22 1 21
v 22 1 6
v 22 1 -7
v 22 1 -8
v 22 1 -21
v 22 1 -22
v 22 1 -35
v 22 15 48
v 22 15 35
v 22 15 34
v 22 15 21
v 22 15 6
v 22 15 -7
v 22 15 -8
v 22 15 -21
v 22 15 -22
v 22 15 -35
v 22 16 48
v 22 16 21
v 22 16 6
v 22 16 -35
v 8 0 48
v 8 0 34
v 8 0 6
v 8 0 -35
v 8 1 48
v 8 1 35
v 8 1 6
v 8 1 -7
v 8 1 -8
v 8 1 -21
v 8 1 -22
v 8 1 -35
v 8 15 48
v 8 15 35
v 8 15 6
v 8 15 -7
v 8 15 -8
v 8 15 -21
v 8 15 -22
v 8 15 -35
v 8 16 48
v 8 16 34
v 8 16 6
v 8 16 -35
v 38 0 63
v 38 0 -50
v 38 1 62
v 38 1 49
v 38 1 48
v 38 1 35
v 38 1 34
v 38 1 21
v 38 1 20
v 38 1 7
v 38 1 6
v 38 1 -7
v 38 1 -8
v 38 1 -21
v 38 1 -22
v 38 1 -35
v 38 1 -36
v 38 1 -49
v 38 15 62
v 38 15 49
v 38 15 48
v 38 15 35
v 38 15 34
v 38 15 21
v 38 15 20
v 38 15 7
v 38 15 6
v 38 15 -7
v 38 15 -8
v 38 15 -21
v 38 15 -22
v 38 15 -35
v 38 15 -36
v 38 15 -49
v 38 16 63
v 38 16 -50
v -8 0 63
v -8 16 63
v -7 1 63
v -7 15 63
v 7 1 63
v 7 15 63
v 8 1 63
v 8 15 63
v 22 1 63
v 22 15 63
v 23 1 63
v 23 15 63
v 37 1 63
v 37 15 63
v 38 0 63
v 38 16 63
v -8 0 21
v -8 16 21
v -7 1 21
v -7 15 21
v 7 1 21
v 7 15 21
v 8 1 21
v 8 15 21
v 22 0 21
v 22 1 21
v 22 15 21
v 22 16 21
v 8 0 -35
v 8 1 -35
v 8 15 -35
v 8 16 -35
v 22 0 -35
v 22 1 -35
v 22 15 -35
v 22 16 -35
v 8 0 48
v 8 1 48
v 8 15 48
v 8 16 48
v 22 0 48
v 22 1 48
v 22 15 48
v 22 16 48
v -8 0 34
v -8 16 34
v -7 1 34
v -7 15 34
v 7 1 34
v 7 15 34
v 8 0 34
v 8 16 34
v 8 0 6
v 8 1 6
v 8 15 6
v 8 16 6
v 22 0 6
v 22 1 6
v 22 15 6
v 22 16 6
v -8 0 -50
v -8 16 -50
v -7 1 -50
v -7 15 -50
v 7 1 -50
v 7 15 -50
v 8 1 -50
v 8 15 -50
v 22 1 -50
v 22 15 -50
v 23 1 -50
v 23 15 -50
v 37 1 -50
v 37 15 -50
v 38 0 -50
v 38 16 -50
v -8 0 63
v 38 0 63
v -7 0 62
v 7 0 62
v 8 0 62
v 22 0 62
v 23 0 62
v 37 0 62
v -7 0 49
v 7 0 49
v 8 0 49
v 22 0 49
v 23 0 49
v 37 0 49
v -7 0 48
v 7 0 48
v 8 0 48
v 22 0 48
v 23 0 48
v 37 0 48
v -7 0 35
v 7 0 35
v 23 0 35
v 37 0 35
v -8 0 34
v 8 0 34
v 23 0 34
v 37 0 34
v -8 0 21
v 22 0 21
v 23 0 21
v 37 0 21
v -7 0 20
v 7 0 20
v 8 0 20
v 22 0 20
v 23 0 20
v 37 0 20
v -7 0 7
v 7 0 7
v 8 0 7
v 22 0 7
v 23 0 7
v 37 0 7
v -7 0 6
v 7 0 6
v 8 0 6
v 22 0 6
v 23 0 6
v 37 0 6
v -7 0 -7
v 7 0 -7
v 23 0 -7
v 37 0 -7
v -7 0 -8
v 7 0 -8
v 23 0 -8
v 37 0 -8
v -7 0 -21
v 7 0 -21
v 23 0 -21
v 37 0 -21
v -7 0 -22
v 7 0 -22
v 23 0 -22
v 37 0 -22
v -7 0 -35
v 7 0 -35
v 8 0 -35
v 22 0 -35
v 23 0 -35
v 37 0 -35
v -7 0 -36
v 7 0 -36
v 8 0 -36
v 22 0 -36
v 23 0 -36
v 37 0 -36
v -7 0 -49
v 7 0 -49
v 8 0 -49
v 22 0 -49
v 23 0 -49
v 37 0 -49
v -8 0 -50
v 38 0 -50
v -8 16 63
v 38 16 63
v -7 16 62
v 7 16 62
v 8 16 62
v 22 16 62
v 23 16 62
v 37 16 62
v -7 16 49
v 7 16 49
v 8 16 49
v 22 16 49
v 23 16 49
v 37 16 49
v -7 16 48
v 7 16 48
v 8 16 48
v 22 16 48
v 23 16 48
v 37 16 48
v -7 16 35
v 7 16 35
v 23 16 35
v 37 16 35
v -8 16 34
v 8 16 34
v 23 16 34
v 37 16 34
v -8 16 21
v 22 16 21
v 23 16 21
v 37 16 21
v -7 16 20
v 7 16 20
v 8 16 20
v 22 16 20
v 23 16 20
v 37 16 20
v -7 16 7
v 7 16 7
v 8 16 7
v 22 16 7
v 23 16 7
v 37 16 7
v -7 16 6
v 7 16 6
v 8 16 6
v 22 16 6
v 23 16 6
v 37 16 6
v -7 16 -7
v 7 16 -7
v 23 16 -7
v 37 16 -7
v -7 16 -8
v 7 16 -8
v 23 16 -8
v 37 16 -8
v -7 16 -21
v 7 16 -21
v 23 16 -21
v 37 16 -21
v -7 16 -22
v 7 16 -22
v 23 16 -22
v 37 16 -22
v -7 16 -35
v 7 16 -35
v 8 16 -35
v 22 16 -35
v 23 16 -35
v 37 16 -35
v -7 16 -36
v 7 16 -36
v 8 16 -36
v 22 16 -36
v 23 16 -36
v 37 16 -36
v -7 16 -49
v 7 16 -49
v 8 16 -49
v 22 16 -49
v 23 16 -49
v 37 16 -49
v -8 16 -50
v 38 16 -50

# faces
f 5/3/1 2/3/1 1/3/1
f 6/3/1 2/3/1 5/3/1
f 7/3/1 2/3/1 6/3/1
f 8/3/1 2/3/1 7/3/1
f 9/3/1 4/3/1 3/3/1
f 10/3/1 4/3/1 9/3/1
f 11/3/1 4/3/1 10/3/1
f 12/3/1 4/3/1 11/3/1
f 13/3/1 4/3/1 12/3/1
f 14/3/1 4/3/1 13/3/1
f 15/3/1 4/3/1 14/3/1
f 16/3/1 4/3/1 15/3/1
f 17/3/1 4/3/1 16/3/1
f 18/3/1 4/3/1 17/3/1
f 19/3/1 5/3/1 1/3/1
f 19/2/1 6/2/1 5/2/1
f 20/3/1 7/3/1 6/3/1
f 20/2/1 6/2/1 19/2/1
f 21/2/1 8/2/1 7/2/1
f 21/3/1 7/3/1 20/3/1
f 22/3/1 2/3/1 8/3/1
f 22/2/1 8/2/1 21/2/1
f 23/3/1 9/3/1 3/3/1
f 23/2/1 10/2/1 9/2/1
f 24/3/1 11/3/1 10/3/1
f 24/2/1 10/2/1 23/2/1
f 25/2/1 12/2/1 11/2/1
f 25/3/1 11/3/1 24/3/1
f 26/3/1 13/3/1 12/3/1
f 26/2/1 12/2/1 25/2/1
f 27/2/1 14/2/1 13/2/1
f 27/3/1 13/3/1 26/3/1
f 28/3/1 15/3/1 14/3/1
f 28/2/1 14/2/1 27/2/1
f 29/2/1 16/2/1 15/2/1
f 29/3/1 15/3/1 28/3/1
f 30/3/1 17/3/1 16/3/1
f 30/2/1 16/2/1 29/2/1
f 31/2/1 18/2/1 17/2/1
f 31/3/1 17/3/1 30/3/1
f 32/3/1 4/3/1 18/3/1
f 32/2/1 18/2/1 31/2/1
f 33/3/1 21/3/1 20/3/1
f 33/3/1 19/3/1 1/3/1
f 33/3/1 20/3/1 19/3/1
f 33/3/1 22/3/1 21/3/1
f 34/3/1 2/3/1 22/3/1
f 34/3/1 22/3/1 33/3/1
f 35/3/1 31/3/1 30/3/1
f 35/3/1 30/3/1 29/3/1
f 35/3/1 27/3/1 26/3/1
f 35/3/1 26/3/1 25/3/1
f 35/3/1 25/3/1 24/3/1
f 35/3/1 24/3/1 23/3/1
f 35/3/1 23/3/1 3/3/1
f 35/3/1 28/3/1 27/3/1
f 35/3/1 32/3/1 31/3/1
f 35/3/1 29/3/1 28/3/1
f 36/3/1 4/3/1 32/3/1
f 36/3/1 32/3/1 35/3/1
f 41/3/1 38/3/1 37/3/1
f 42/3/1 38/3/1 41/3/1
f 43/3/1 38/3/1 42/3/1
f 44/3/1 38/3/1 43/3/1
f 45/3/1 40/3/1 39/3/1
f 46/3/1 40/3/1 45/3/1
f 47/3/1 40/3/1 46/3/1
f 48/3/1 40/3/1 47/3/1
f 49/3/1 40/3/1 48/3/1
f 50/3/1 40/3/1 49/3/1
f 51/2/1 42/2/1 41/2/1
f 52/3/1 43/3/1 42/3/1
f 52/2/1 42/2/1 51/2/1
f 53/2/1 44/2/1 43/2/1
f 53/3/1 43/3/1 52/3/1
f 54/2/1 44/2/1 53/2/1
f 55/2/1 46/2/1 45/2/1
f 56/3/1 47/3/1 46/3/1
f 56/2/1 46/2/1 55/2/1
f 57/2/1 48/2/1 47/2/1
f 57/3/1 47/3/1 56/3/1
f 58/3/1 49/3/1 48/3/1
f 58/2/1 48/2/1 57/2/1
f 59/2/1 50/2/1 49/2/1
f 59/3/1 49/3/1 58/3/1
f 60/2/1 50/2/1 59/2/1
f 61/3/1 52/3/1 51/3/1
f 61/3/1 54/3/1 53/3/1
f 61/3/1 53/3/1 52/3/1
f 62/3/1 54/3/1 61/3/1
f 63/3/1 60/3/1 59/3/1
f 63/3/1 56/3/1 55/3/1
f 63/3/1 57/3/1 56/3/1
f 63/3/1 59/3/1 58/3/1
f 63/3/1 58/3/1 57/3/1
f 64/3/1 60/3/1 63/3/1
f 65/3/2 66/3/2 69/3/2
f 69/3/2 66/3/2 70/3/2
f 67/3/2 68/3/2 71/3/2
f 71/3/2 68/3/2 72/3/2
f 72/3/2 68/3/2 73/3/2
f 73/3/2 68/3/2 74/3/2
f 74/3/2 68/3/2 75/3/2
f 75/3/2 68/3/2 76/3/2
f 69/2/2 70/2/2 77/2/2
f 70/3/2 66/3/2 78/3/2
f 77/2/2 70/2/2 78/2/2
f 71/2/2 72/2/2 79/2/2
f 72/3/2 73/3/2 80/3/2
f 79/2/2 72/2/2 80/2/2
f 73/2/2 74/2/2 81/2/2
f 80/3/2 73/3/2 81/3/2
f 74/3/2 75/3/2 82/3/2
f 81/2/2 74/2/2 82/2/2
f 75/2/2 76/2/2 83/2/2
f 82/3/2 75/3/2 83/3/2
f 83/2/2 76/2/2 84/2/2
f 77/3/2 78/3/2 85/3/2
f 78/3/2 66/3/2 86/3/2
f 85/3/2 78/3/2 86/3/2
f 79/3/2 80/3/2 87/3/2
f 80/3/2 81/3/2 87/3/2
f 83/3/2 84/3/2 87/3/2
f 82/3/2 83/3/2 87/3/2
f 81/3/2 82/3/2 87/3/2
f 87/3/2 84/3/2 88/3/2
f 89/3/2 90/3/2 91/3/2
f 91/3/2 90/3/2 92/3/2
f 92/3/2 90/3/2 93/3/2
f 93/3/2 90/3/2 94/3/2
f 94/3/2 90/3/2 95/3/2
f 95/3/2 90/3/2 96/3/2
f 96/3/2 90/3/2 97/3/2
f 97/3/2 90/3/2 98/3/2
f 98/3/2 90/3/2 99/3/2
f 99/3/2 90/3/2 100/3/2
f 100/3/2 90/3/2 101/3/2
f 101/3/2 90/3/2 102/3/2
f 102/3/2 90/3/2 103/3/2
f 103/3/2 90/3/2 104/3/2
f 104/3/2 90/3/2 105/3/2
f 105/3/2 90/3/2 106/3/2
f 89/3/2 91/3/2 107/3/2
f 91/2/2 92/2/2 107/2/2
f 92/3/2 93/3/2 108/3/2
f 107/2/2 92/2/2 108/2/2
f 93/2/2 94/2/2 109/2/2
f 108/3/2 93/3/2 109/3/2
f 94/3/2 95/3/2 110/3/2
f 109/2/2 94/2/2 110/2/2
f 95/2/2 96/2/2 111/2/2
f 110/3/2 95/3/2 111/3/2
f 96/3/2 97/3/2 112/3/2
f 111/2/2 96/2/2 112/2/2
f 97/2/2 98/2/2 113/2/2
f 112/3/2 97/3/2 113/3/2
f 98/3/2 99/3/2 114/3/2
f 113/2/2 98/2/2 114/2/2
f 99/2/2 100/2/2 115/2/2
f 114/3/2 99/3/2 115/3/2
f 100/3/2 101/3/2 116/3/2
f 115/2/2 100/2/2 116/2/2
f 101/2/2 102/2/2 117/2/2
f 116/3/2 101/3/2 117/3/2
f 102/3/2 103/3/2 118/3/2
f 117/2/2 102/2/2 118/2/2
f 103/2/2 104/2/2 119/2/2
f 118/3/2 103/3/2 119/3/2
f 104/3/2 105/3/2 120/3/2
f 119/2/2 104/2/2 120/2/2
f 105/2/2 106/2/2 121/2/2
f 120/3/2 105/3/2 121/3/2
f 106/3/2 90/3/2 122/3/2
f 121/2/2 106/2/2 122/2/2
f 120/3/2 121/3/2 123/3/2
f 119/3/2 120/3/2 123/3/2
f 121/3/2 122/3/2 123/3/2
f 118/3/2 119/3/2 123/3/2
f 117/3/2 118/3/2 123/3/2
f 116/3/2 117/3/2 123/3/2
f 115/3/2 116/3/2 123/3/2
f 114/3/2 115/3/2 123/3/2
f 113/3/2 114/3/2 123/3/2
f 112/3/2 113/3/2 123/3/2
f 111/3/2 112/3/2 123/3/2
f 110/3/2 111/3/2 123/3/2
f 109/3/2 110/3/2 123/3/2
f 108/3/2 109/3/2 123/3/2
f 107/3/2 108/3/2 123/3/2
f 89/3/2 107/3/2 123/3/2
f 122/3/2 90/3/2 124/3/2
f 123/3/2 122/3/2 124/3/2
f 127/3/3 126/3/3 125/3/3
f 128/3/3 126/3/3 127/3/3
f 129/3/3 127/3/3 125/3/3
f 129/2/3 128/2/3 127/2/3
f 130/3/3 126/3/3 128/3/3
f 130/2/3 128/2/3 129/2/3
f 131/3/3 129/3/3 125/3/3
f 131/3/3 130/3/3 129/3/3
f 132/3/3 126/3/3 130/3/3
f 132/3/3 130/3/3 131/3/3
f 133/3/3 131/3/3 125/3/3
f 133/2/3 132/2/3 131/2/3
f 134/3/3 126/3/3 132/3/3
f 134/2/3 132/2/3 133/2/3
f 135/3/3 133/3/3 125/3/3
f 135/3/3 134/3/3 133/3/3
f 136/3/3 126/3/3 134/3/3
f 136/3/3 134/3/3 135/3/3
f 137/3/3 135/3/3 125/3/3
f 137/2/3 136/2/3 135/2/3
f 138/3/3 126/3/3 136/3/3
f 138/2/3 136/2/3 137/2/3
f 139/3/3 137/3/3 125/3/3
f 139/3/3 138/3/3 137/3/3
f 140/3/3 126/3/3 138/3/3
f 140/3/3 138/3/3 139/3/3
f 143/3/3 142/3/3 141/3/3
f 144/3/3 142/3/3 143/3/3
f 145/3/3 143/3/3 141/3/3
f 145/2/3 144/2/3 143/2/3
f 146/3/3 142/3/3 144/3/3
f 146/2/3 144/2/3 145/2/3
f 147/3/3 145/3/3 141/3/3
f 147/3/3 146/3/3 145/3/3
f 148/3/3 142/3/3 146/3/3
f 148/3/3 146/3/3 147/3/3
f 149/3/3 147/3/3 141/3/3
f 150/2/3 148/2/3 147/2/3
f 150/3/3 147/3/3 149/3/3
f 151/3/3 142/3/3 148/3/3
f 151/2/3 148/2/3 150/2/3
f 152/3/3 142/3/3 151/3/3
f 157/3/3 154/3/3 153/3/3
f 158/2/3 155/2/3 154/2/3
f 158/3/3 154/3/3 157/3/3
f 159/3/3 156/3/3 155/3/3
f 159/2/3 155/2/3 158/2/3
f 160/3/3 156/3/3 159/3/3
f 161/3/4 162/3/4 165/3/4
f 162/2/4 163/2/4 166/2/4
f 165/3/4 162/3/4 166/3/4
f 163/3/4 164/3/4 167/3/4
f 166/2/4 163/2/4 167/2/4
f 167/3/4 164/3/4 168/3/4
f 169/3/4 170/3/4 171/3/4
f 171/3/4 170/3/4 172/3/4
f 169/3/4 171/3/4 173/3/4
f 171/2/4 172/2/4 173/2/4
f 172/3/4 170/3/4 174/3/4
f 173/2/4 172/2/4 174/2/4
f 169/3/4 173/3/4 175/3/4
f 173/3/4 174/3/4 175/3/4
f 174/3/4 170/3/4 176/3/4
f 175/3/4 174/3/4 176/3/4
f 177/3/4 178/3/4 181/3/4
f 178/2/4 179/2/4 182/2/4
f 181/3/4 178/3/4 182/3/4
f 179/3/4 180/3/4 183/3/4
f 182/2/4 179/2/4 183/2/4
f 183/3/4 180/3/4 184/3/4
f 185/3/4 186/3/4 187/3/4
f 187/3/4 186/3/4 188/3/4
f 185/3/4 187/3/4 189/3/4
f 187/2/4 188/2/4 189/2/4
f 188/3/4 186/3/4 190/3/4
f 189/2/4 188/2/4 190/2/4
f 185/3/4 189/3/4 191/3/4
f 189/3/4 190/3/4 191/3/4
f 190/3/4 186/3/4 192/3/4
f 191/3/4 190/3/4 192/3/4
f 185/3/4 191/3/4 193/3/4
f 191/2/4 192/2/4 193/2/4
f 192/3/4 186/3/4 194/3/4
f 193/2/4 192/2/4 194/2/4
f 185/3/4 193/3/4 195/3/4
f 193/3/4 194/3/4 195/3/4
f 194/3/4 186/3/4 196/3/4
f 195/3/4 194/3/4 196/3/4
f 185/3/4 195/3/4 197/3/4
f 195/2/4 196/2/4 197/2/4
f 196/3/4 186/3/4 198/3/4
f 197/2/4 196/2/4 198/2/4
f 185/3/4 197/3/4 199/3/4
f 197/3/4 198/3/4 199/3/4
f 198/3/4 186/3/4 200/3/4
f 199/3/4 198/3/4 200/3/4
f 203/3/5 202/3/5 201/3/5
f 204/3/5 202/3/5 203/3/5
f 205/3/5 202/3/5 204/3/5
f 206/3/5 202/3/5 205/3/5
f 207/3/5 202/3/5 206/3/5
f 208/3/5 202/3/5 207/3/5
f 209/3/5 203/3/5 201/3/5
f 209/2/5 204/2/5 203/2/5
f 210/3/5 205/3/5 204/3/5
f 210/2/5 204/2/5 209/2/5
f 211/2/5 206/2/5 205/2/5
f 211/3/5 205/3/5 210/3/5
f 212/3/5 207/3/5 206/3/5
f 212/2/5 206/2/5 211/2/5
f 213/2/5 208/2/5 207/2/5
f 213/3/5 207/3/5 212/3/5
f 214/3/5 202/3/5 208/3/5
f 214/2/5 208/2/5 213/2/5
f 215/3/5 213/3/5 212/3/5
f 215/3/5 212/3/5 211/3/5
f 215/3/5 214/3/5 213/3/5
f 215/3/5 211/3/5 210/3/5
f 215/3/5 210/3/5 209/3/5
f 215/3/5 209/3/5 201/3/5
f 216/3/5 214/3/5 215/3/5
f 217/3/5 214/3/5 216/3/5
f 218/3/5 214/3/5 217/3/5
f 219/3/5 214/3/5 218/3/5
f 220/3/5 202/3/5 214/3/5
f 220/3/5 214/3/5 219/3/5
f 221/3/5 215/3/5 201/3/5
f 221/2/5 216/2/5 215/2/5
f 222/3/5 217/3/5 216/3/5
f 222/2/5 216/2/5 221/2/5
f 223/3/5 219/3/5 218/3/5
f 223/2/5 220/2/5 219/2/5
f 224/3/5 202/3/5 220/3/5
f 224/2/5 220/2/5 223/2/5
f 225/3/5 222/3/5 221/3/5
f 225/3/5 221/3/5 201/3/5
f 226/3/5 217/3/5 222/3/5
f 226/3/5 222/3/5 225/3/5
f 227/3/5 223/3/5 218/3/5
f 227/3/5 224/3/5 223/3/5
f 228/3/5 202/3/5 224/3/5
f 228/3/5 224/3/5 227/3/5
f 230/3/5 227/3/5 218/3/5
f 231/2/5 228/2/5 227/2/5
f 231/3/5 227/3/5 230/3/5
f 232/3/5 202/3/5 228/3/5
f 232/2/5 228/2/5 231/2/5
f 233/3/5 231/3/5 230/3/5
f 233/3/5 230/3/5 229/3/5
f 233/3/5 232/3/5 231/3/5
f 234/3/5 232/3/5 233/3/5
f 235/3/5 232/3/5 234/3/5
f 236/3/5 232/3/5 235/3/5
f 237/3/5 232/3/5 236/3/5
f 238/3/5 202/3/5 232/3/5
f 238/3/5 232/3/5 237/3/5
f 239/3/5 233/3/5 229/3/5
f 239/2/5 234/2/5 233/2/5
f 240/3/5 235/3/5 234/3/5
f 240/2/5 234/2/5 239/2/5
f 241/2/5 236/2/5 235/2/5
f 241/3/5 235/3/5 240/3/5
f 242/3/5 237/3/5 236/3/5
f 242/2/5 236/2/5 241/2/5
f 243/2/5 238/2/5 237/2/5
f 243/3/5 237/3/5 242/3/5
f 244/3/5 202/3/5 238/3/5
f 244/2/5 238/2/5 243/2/5
f 245/3/5 241/3/5 240/3/5
f 245/3/5 243/3/5 242/3/5
f 245/3/5 244/3/5 243/3/5
f 245/3/5 240/3/5 239/3/5
f 245/3/5 239/3/5 229/3/5
f 245/3/5 242/3/5 241/3/5
f 246/3/5 244/3/5 245/3/5
f 247/3/5 244/3/5 246/3/5
f 248/3/5 244/3/5 247/3/5
f 249/3/5 244/3/5 248/3/5
f 250/3/5 202/3/5 244/3/5
f 250/3/5 244/3/5 249/3/5
f 251/3/5 245/3/5 229/3/5
f 251/2/5 246/2/5 245/2/5
f 252/3/5 247/3/5 246/3/5
f 252/2/5 246/2/5 251/2/5
f 253/3/5 249/3/5 248/3/5
f 253/2/5 250/2/5 249/2/5
f 254/3/5 202/3/5 250/3/5
f 254/2/5 250/2/5 253/2/5
f 255/3/5 252/3/5 251/3/5
f 255/3/5 251/3/5 229/3/5
f 256/3/5 247/3/5 252/3/5
f 256/3/5 252/3/5 255/3/5
f 257/3/5 253/3/5 248/3/5
f 257/3/5 254/3/5 253/3/5
f 258/3/5 202/3/5 254/3/5
f 258/3/5 254/3/5 257/3/5
f 259/3/5 255/3/5 229/3/5
f 259/2/5 256/2/5 255/2/5
f 260/3/5 247/3/5 256/3/5
f 260/2/5 256/2/5 259/2/5
f 261/3/5 257/3/5 248/3/5
f 261/2/5 258/2/5 257/2/5
f 262/3/5 202/3/5 258/3/5
f 262/2/5 258/2/5 261/2/5
f 263/3/5 259/3/5 229/3/5
f 263/3/5 260/3/5 259/3/5
f 264/3/5 247/3/5 260/3/5
f 264/3/5 260/3/5 263/3/5
f 265/3/5 261/3/5 248/3/5
f 265/3/5 262/3/5 261/3/5
f 266/3/5 202/3/5 262/3/5
f 266/3/5 262/3/5 265/3/5
f 267/3/5 263/3/5 229/3/5
f 267/2/5 264/2/5 263/2/5
f 268/3/5 247/3/5 264/3/5
f 268/2/5 264/2/5 267/2/5
f 269/3/5 247/3/5 268/3/5
f 270/3/5 265/3/5 248/3/5
f 271/2/5 266/2/5 265/2/5
f 271/3/5 265/3/5 270/3/5
f 272/3/5 202/3/5 266/3/5
f 272/2/5 266/2/5 271/2/5
f 273/3/5 267/3/5 229/3/5
f 273/3/5 269/3/5 268/3/5
f 273/3/5 272/3/5 271/3/5
f 273/3/5 271/3/5 270/3/5
f 273/3/5 268/3/5 267/3/5
f 273/3/5 270/3/5 269/3/5
f 274/3/5 272/3/5 273/3/5
f 275/3/5 272/3/5 274/3/5
f 276/3/5 272/3/5 275/3/5
f 277/3/5 272/3/5 276/3/5
f 278/3/5 202/3/5 272/3/5
f 278/3/5 272/3/5 277/3/5
f 279/3/5 273/3/5 229/3/5
f 279/2/5 274/2/5 273/2/5
f 280/3/5 275/3/5 274/3/5
f 280/2/5 274/2/5 279/2/5
f 281/2/5 276/2/5 275/2/5
f 281/3/5 275/3/5 280/3/5
f 282/3/5 277/3/5 276/3/5
f 282/2/5 276/2/5 281/2/5
f 283/2/5 278/2/5 277/2/5
f 283/3/5 277/3/5 282/3/5
f 284/3/5 202/3/5 278/3/5
f 284/2/5 278/2/5 283/2/5
f 285/3/5 281/3/5 280/3/5
f 285/3/5 283/3/5 282/3/5
f 285/3/5 284/3/5 283/3/5
f 285/3/5 280/3/5 279/3/5
f 285/3/5 279/3/5 229/3/5
f 285/3/5 282/3/5 281/3/5
f 286/3/5 202/3/5 284/3/5
f 286/3/5 284/3/5 285/3/5
f 287/3/6 288/3/6 289/3/6
f 289/3/6 288/3/6 290/3/6
f 290/3/6 288/3/6 291/3/6
f 291/3/6 288/3/6 292/3/6
f 292/3/6 288/3/6 293/3/6
f 293/3/6 288/3/6 294/3/6
f 287/3/6 289/3/6 295/3/6
f 289/2/6 290/2/6 295/2/6
f 290/3/6 291/3/6 296/3/6
f 295/2/6 290/2/6 296/2/6
f 291/2/6 292/2/6 297/2/6
f 296/3/6 291/3/6 297/3/6
f 292/3/6 293/3/6 298/3/6
f 297/2/6 292/2/6 298/2/6
f 293/2/6 294/2/6 299/2/6
f 298/3/6 293/3/6 299/3/6
f 294/3/6 288/3/6 300/3/6
f 299/2/6 294/2/6 300/2/6
f 298/3/6 299/3/6 301/3/6
f 297/3/6 298/3/6 301/3/6
f 299/3/6 300/3/6 301/3/6
f 296/3/6 297/3/6 301/3/6
f 295/3/6 296/3/6 301/3/6
f 287/3/6 295/3/6 301/3/6
f 301/3/6 300/3/6 302/3/6
f 302/3/6 300/3/6 303/3/6
f 303/3/6 300/3/6 304/3/6
f 304/3/6 300/3/6 305/3/6
f 300/3/6 288/3/6 306/3/6
f 305/3/6 300/3/6 306/3/6
f 287/3/6 301/3/6 307/3/6
f 301/2/6 302/2/6 307/2/6
f 302/3/6 303/3/6 308/3/6
f 307/2/6 302/2/6 308/2/6
f 304/3/6 305/3/6 309/3/6
f 305/2/6 306/2/6 309/2/6
f 306/3/6 288/3/6 310/3/6
f 309/2/6 306/2/6 310/2/6
f 307/3/6 308/3/6 311/3/6
f 287/3/6 307/3/6 311/3/6
f 308/3/6 303/3/6 312/3/6
f 311/3/6 308/3/6 312/3/6
f 304/3/6 309/3/6 313/3/6
f 309/3/6 310/3/6 313/3/6
f 310/3/6 288/3/6 314/3/6
f 313/3/6 310/3/6 314/3/6
f 304/3/6 313/3/6 316/3/6
f 313/2/6 314/2/6 317/2/6
f 316/3/6 313/3/6 317/3/6
f 314/3/6 288/3/6 318/3/6
f 317/2/6 314/2/6 318/2/6
f 316/3/6 317/3/6 319/3/6
f 315/3/6 316/3/6 319/3/6
f 317/3/6 318/3/6 319/3/6
f 319/3/6 318/3/6 320/3/6
f 320/3/6 318/3/6 321/3/6
f 321/3/6 318/3/6 322/3/6
f 322/3/6 318/3/6 323/3/6
f 318/3/6 288/3/6 324/3/6
f 323/3/6 318/3/6 324/3/6
f 315/3/6 319/3/6 325/3/6
f 319/2/6 320/2/6 325/2/6
f 320/3/6 321/3/6 326/3/6
f 325/2/6 320/2/6 326/2/6
f 321/2/6 322/2/6 327/2/6
f 326/3/6 321/3/6 327/3/6
f 322/3/6 323/3/6 328/3/6
f 327/2/6 322/2/6 328/2/6
f 323/2/6 324/2/6 329/2/6
f 328/3/6 323/3/6 329/3/6
f 324/3/6 288/3/6 330/3/6
f 329/2/6 324/2/6 330/2/6
f 326/3/6 327/3/6 331/3/6
f 328/3/6 329/3/6 331/3/6
f 329/3/6 330/3/6 331/3/6
f 325/3/6 326/3/6 331/3/6
f 315/3/6 325/3/6 331/3/6
f 327/3/6 328/3/6 331/3/6
f 331/3/6 330/3/6 332/3/6
f 332/3/6 330/3/6 333/3/6
f 333/3/6 330/3/6 334/3/6
f 334/3/6 330/3/6 335/3/6
f 330/3/6 288/3/6 336/3/6
f 335/3/6 330/3/6 336/3/6
f 315/3/6 331/3/6 337/3/6
f 331/2/6 332/2/6 337/2/6
f 332/3/6 333/3/6 338/3/6
f 337/2/6 332/2/6 338/2/6
f 334/3/6 335/3/6 339/3/6
f 335/2/6 336/2/6 339/2/6
f 336/3/6 288/3/6 340/3/6
f 339/2/6 336/2/6 340/2/6
f 337/3/6 338/3/6 341/3/6
f 315/3/6 337/3/6 341/3/6
f 338/3/6 333/3/6 342/3/6
f 341/3/6 338/3/6 342/3/6
f 334/3/6 339/3/6 343/3/6
f 339/3/6 340/3/6 343/3/6
f 340/3/6 288/3/6 344/3/6
f 343/3/6 340/3/6 344/3/6
f 315/3/6 341/3/6 345/3/6
f 341/2/6 342/2/6 345/2/6
f 342/3/6 333/3/6 346/3/6
f 345/2/6 342/2/6 346/2/6
f 334/3/6 343/3/6 347/3/6
f 343/2/6 344/2/6 347/2/6
f 344/3/6 288/3/6 348/3/6
f 347/2/6 344/2/6 348/2/6
f 315/3/6 345/3/6 349/3/6
f 345/3/6 346/3/6 349/3/6
f 346/3/6 333/3/6 350/3/6
f 349/3/6 346/3/6 350/3/6
f 334/3/6 347/3/6 351/3/6
f 347/3/6 348/3/6 351/3/6
f 348/3/6 288/3/6 352/3/6
f 351/3/6 348/3/6 352/3/6
f 315/3/6 349/3/6 353/3/6
f 349/2/6 350/2/6 353/2/6
f 350/3/6 333/3/6 354/3/6
f 353/2/6 350/2/6 354/2/6
f 354/3/6 333/3/6 355/3/6
f 334/3/6 351/3/6 356/3/6
f 351/2/6 352/2/6 357/2/6
f 356/3/6 351/3/6 357/3/6
f 352/3/6 288/3/6 358/3/6
f 357/2/6 352/2/6 358/2/6
f 315/3/6 353/3/6 359/3/6
f 354/3/6 355/3/6 359/3/6
f 357/3/6 358/3/6 359/3/6
f 356/3/6 357/3/6 359/3/6
f 353/3/6 354/3/6 359/3/6
f 355/3/6 356/3/6 359/3/6
f 359/3/6 358/3/6 360/3/6
f 360/3/6 358/3/6 361/3/6
f 361/3/6 358/3/6 362/3/6
f 362/3/6 358/3/6 363/3/6
f 358/3/6 288/3/6 364/3/6
f 363/3/6 358/3/6 364/3/6
f 315/3/6 359/3/6 365/3/6
f 359/2/6 360/2/6 365/2/6
f 360/3/6 361/3/6 366/3/6
f 365/2/6 360/2/6 366/2/6
f 361/2/6 362/2/6 367/2/6
f 366/3/6 361/3/6 367/3/6
f 362/3/6 363/3/6 368/3/6
f 367/2/6 362/2/6 368/2/6
f 363/2/6 364/2/6 369/2/6
f 368/3/6 363/3/6 369/3/6
f 364/3/6 288/3/6 370/3/6
f 369/2/6 364/2/6 370/2/6
f 366/3/6 367/3/6 371/3/6
f 368/3/6 369/3/6 371/3/6
f 369/3/6 370/3/6 371/3/6
f 365/3/6 366/3/6 371/3/6
f 315/3/6 365/3/6 371/3/6
f 367/3/6 368/3/6 371/3/6
f 370/3/6 288/3/6 372/3/6
f 371/3/6 370/3/6 372/3/6
