# MagicaVoxel @ Ephtracy

# material
mtllib u.mtl
usemtl palette

# normals
vn -1 0 0
vn 1 0 0
vn 0 0 1
vn 0 0 -1
vn 0 -1 0
vn 0 1 0

# texcoords
vt 0.306641 0.5
vt 0.962891 0.5
vt 0.994141 0.5

# verts
v -38 0 63
v -38 0 -8
v -38 1 62
v -38 1 49
v -38 1 48
v -38 1 35
v -38 1 34
v -38 1 21
v -38 1 20
v -38 1 7
v -38 1 6
v -38 1 -7
v -38 15 62
v -38 15 49
v -38 15 48
v -38 15 35
v -38 15 34
v -38 15 21
v -38 15 20
v -38 15 7
v -38 15 6
v -38 15 -7
v -38 16 63
v -38 16 -8
v -8 0 48
v -8 0 -8
v -8 1 48
v -8 1 35
v -8 1 34
v -8 1 21
v -8 1 20
v -8 1 7
v -8 1 6
v -8 1 -7
v -8 15 48
v -8 15 35
v -8 15 34
v -8 15 21
v -8 15 20
v -8 15 7
v -8 15 6
v -8 15 -7
v -8 16 48
v -8 16 -8
v -22 0 48
v -22 0 -8
v -22 1 48
v -22 1 35
v -22 1 34
v -22 1 21
v -22 1 20
v -22 1 7
v -22 1 6
v -22 1 -7
v -22 15 48
v -22 15 35
v -22 15 34
v -22 15 21
v -22 15 20
v -22 15 7
v -22 15 6
v -22 15 -7
v -22 16 48
v -22 16 -8
v 8 0 63
v 8 0 -8
v 8 1 62
v 8 1 49
v 8 1 48
v 8 1 35
v 8 1 34
v 8 1 21
v 8 1 20
v 8 1 7
v 8 1 6
v 8 1 -7
v 8 15 62
v 8 15 49
v 8 15 48
v 8 15 35
v 8 15 34
v 8 15 21
v 8 15 20
v 8 15 7
v 8 15 6
v 8 15 -7
v 8 16 63
v 8 16 -8
v -38 0 63
v -38 16 63
v -37 1 63
v -37 15 63
v -23 1 63
v -23 15 63
v -22 1 63
v -22 15 63
v -8 1 63
v -8 15 63
v -7 1 63
v -7 15 63
v 7 1 63
v 7 15 63
v 8 0 63
v 8 16 63
v -22 0 48
v -22 1 48
v -22 15 48
v -22 16 48
v -8 0 48
v -8 1 48
v -8 15 48
v -8 16 48
v -38 0 -8
v -38 16 -8
v -37 1 -8
v -37 15 -8
v -23 1 -8
v -23 15 -8
v -22 0 -8
v -22 16 -8
v -8 0 -8
v -8 16 -8
v -7 1 -8
v -7 15 -8
v 7 1 -8
v 7 15 -8
v 8 0 -8
v 8 16 -8
v -38 0 63
v 8 0 63
v -37 0 62
v -23 0 62
v -22 0 62
v -8 0 62
v -7 0 62
v 7 0 62
v -37 0 49
v -23 0 49
v -22 0 49
v -8 0 49
v -7 0 49
v 7 0 49
v -37 0 48
v -23 0 48
v -22 0 48
v -8 0 48
v -7 0 48
v 7 0 48
v -37 0 35
v -23 0 35
v -7 0 35
v 7 0 35
v -37 0 34
v -23 0 34
v -7 0 34
v 7 0 34
v -37 0 21
v -23 0 21
v -7 0 21
v 7 0 21
v -37 0 20
v -23 0 20
v -7 0 20
v 7 0 20
v -37 0 7
v -23 0 7
v -7 0 7
v 7 0 7
v -37 0 6
v -23 0 6
v -7 0 6
v 7 0 6
v -37 0 -7
v -23 0 -7
v -7 0 -7
v 7 0 -7
v -38 0 -8
v -22 0 -8
v -8 0 -8
v 8 0 -8
v -38 16 63
v 8 16 63
v -37 16 62
v -23 16 62
v -22 16 62
v -8 16 62
v -7 16 62
v 7 16 62
v -37 16 49
v -23 16 49
v -22 16 49
v -8 16 49
v -7 16 49
v 7 16 49
v -37 16 48
v -23 16 48
v -22 16 48
v -8 16 48
v -7 16 48
v 7 16 48
v -37 16 35
v -23 16 35
v -7 16 35
v 7 16 35
v -37 16 34
v -23 16 34
v -7 16 34
v 7 16 34
v -37 16 21
v -23 16 21
v -7 16 21
v 7 16 21
v -37 16 20
v -23 16 20
v -7 16 20
v 7 16 20
v -37 16 7
v -23 16 7
v -7 16 7
v 7 16 7
v -37 16 6
v -23 16 6
v -7 16 6
v 7 16 6
v -37 16 -7
v -23 16 -7
v -7 16 -7
v 7 16 -7
v -38 16 -8
v -22 16 -8
v -8 16 -8
v 8 16 -8

# faces
f 3/3/1 2/3/1 1/3/1
f 4/3/1 2/3/1 3/3/1
f 5/3/1 2/3/1 4/3/1
f 6/3/1 2/3/1 5/3/1
f 7/3/1 2/3/1 6/3/1
f 8/3/1 2/3/1 7/3/1
f 9/3/1 2/3/1 8/3/1
f 10/3/1 2/3/1 9/3/1
f 11/3/1 2/3/1 10/3/1
f 12/3/1 2/3/1 11/3/1
f 13/3/1 3/3/1 1/3/1
f 13/2/1 4/2/1 3/2/1
f 14/3/1 5/3/1 4/3/1
f 14/2/1 4/2/1 13/2/1
f 15/2/1 6/2/1 5/2/1
f 15/3/1 5/3/1 14/3/1
f 16/3/1 7/3/1 6/3/1
f 16/2/1 6/2/1 15/2/1
f 17/2/1 8/2/1 7/2/1
f 17/3/1 7/3/1 16/3/1
f 18/3/1 9/3/1 8/3/1
f 18/2/1 8/2/1 17/2/1
f 19/2/1 10/2/1 9/2/1
f 19/3/1 9/3/1 18/3/1
f 20/3/1 11/3/1 10/3/1
f 20/2/1 10/2/1 19/2/1
f 21/2/1 12/2/1 11/2/1
f 21/3/1 11/3/1 20/3/1
f 22/3/1 2/3/1 12/3/1
f 22/2/1 12/2/1 21/2/1
f 23/3/1 21/3/1 20/3/1
f 23/3/1 20/3/1 19/3/1
f 23/3/1 22/3/1 21/3/1
f 23/3/1 19/3/1 18/3/1
f 23/3/1 18/3/1 17/3/1
f 23/3/1 17/3/1 16/3/1
f 23/3/1 16/3/1 15/3/1
f 23/3/1 15/3/1 14/3/1
f 23/3/1 14/3/1 13/3/1
f 23/3/1 13/3/1 1/3/1
f 24/3/1 2/3/1 22/3/1
f 24/3/1 22/3/1 23/3/1
f 27/3/1 26/3/1 25/3/1
f 28/3/1 26/3/1 27/3/1
f 29/3/1 26/3/1 28/3/1
f 30/3/1 26/3/1 29/3/1
f 31/3/1 26/3/1 30/3/1
f 32/3/1 26/3/1 31/3/1
f 33/3/1 26/3/1 32/3/1
f 34/3/1 26/3/1 33/3/1
f 35/2/1 28/2/1 27/2/1
f 36/3/1 29/3/1 28/3/1
f 36/2/1 28/2/1 35/2/1
f 37/2/1 30/2/1 29/2/1
f 37/3/1 29/3/1 36/3/1
f 38/3/1 31/3/1 30/3/1
f 38/2/1 30/2/1 37/2/1
f 39/2/1 32/2/1 31/2/1
f 39/3/1 31/3/1 38/3/1
f 40/3/1 33/3/1 32/3/1
f 40/2/1 32/2/1 39/2/1
f 41/2/1 34/2/1 33/2/1
f 41/3/1 33/3/1 40/3/1
f 42/3/1 26/3/1 34/3/1
f 42/2/1 34/2/1 41/2/1
f 43/3/1 41/3/1 40/3/1
f 43/3/1 36/3/1 35/3/1
f 43/3/1 42/3/1 41/3/1
f 43/3/1 40/3/1 39/3/1
f 43/3/1 39/3/1 38/3/1
f 43/3/1 38/3/1 37/3/1
f 43/3/1 37/3/1 36/3/1
f 44/3/1 26/3/1 42/3/1
f 44/3/1 42/3/1 43/3/1
f 45/3/2 46/3/2 47/3/2
f 47/3/2 46/3/2 48/3/2
f 48/3/2 46/3/2 49/3/2
f 49/3/2 46/3/2 50/3/2
f 50/3/2 46/3/2 51/3/2
f 51/3/2 46/3/2 52/3/2
f 52/3/2 46/3/2 53/3/2
f 53/3/2 46/3/2 54/3/2
f 47/2/2 48/2/2 55/2/2
f 48/3/2 49/3/2 56/3/2
f 55/2/2 48/2/2 56/2/2
f 49/2/2 50/2/2 57/2/2
f 56/3/2 49/3/2 57/3/2
f 50/3/2 51/3/2 58/3/2
f 57/2/2 50/2/2 58/2/2
f 51/2/2 52/2/2 59/2/2
f 58/3/2 51/3/2 59/3/2
f 52/3/2 53/3/2 60/3/2
f 59/2/2 52/2/2 60/2/2
f 53/2/2 54/2/2 61/2/2
f 60/3/2 53/3/2 61/3/2
f 54/3/2 46/3/2 62/3/2
f 61/2/2 54/2/2 62/2/2
f 60/3/2 61/3/2 63/3/2
f 55/3/2 56/3/2 63/3/2
f 61/3/2 62/3/2 63/3/2
f 59/3/2 60/3/2 63/3/2
f 58/3/2 59/3/2 63/3/2
f 57/3/2 58/3/2 63/3/2
f 56/3/2 57/3/2 63/3/2
f 62/3/2 46/3/2 64/3/2
f 63/3/2 62/3/2 64/3/2
f 65/3/2 66/3/2 67/3/2
f 67/3/2 66/3/2 68/3/2
f 68/3/2 66/3/2 69/3/2
f 69/3/2 66/3/2 70/3/2
f 70/3/2 66/3/2 71/3/2
f 71/3/2 66/3/2 72/3/2
f 72/3/2 66/3/2 73/3/2
f 73/3/2 66/3/2 74/3/2
f 74/3/2 66/3/2 75/3/2
f 75/3/2 66/3/2 76/3/2
f 65/3/2 67/3/2 77/3/2
f 67/2/2 68/2/2 77/2/2
f 68/3/2 69/3/2 78/3/2
f 77/2/2 68/2/2 78/2/2
f 69/2/2 70/2/2 79/2/2
f 78/3/2 69/3/2 79/3/2
f 70/3/2 71/3/2 80/3/2
f 79/2/2 70/2/2 80/2/2
f 71/2/2 72/2/2 81/2/2
f 80/3/2 71/3/2 81/3/2
f 72/3/2 73/3/2 82/3/2
f 81/2/2 72/2/2 82/2/2
f 73/2/2 74/2/2 83/2/2
f 82/3/2 73/3/2 83/3/2
f 74/3/2 75/3/2 84/3/2
f 83/2/2 74/2/2 84/2/2
f 75/2/2 76/2/2 85/2/2
f 84/3/2 75/3/2 85/3/2
f 76/3/2 66/3/2 86/3/2
f 85/2/2 76/2/2 86/2/2
f 84/3/2 85/3/2 87/3/2
f 83/3/2 84/3/2 87/3/2
f 85/3/2 86/3/2 87/3/2
f 82/3/2 83/3/2 87/3/2
f 81/3/2 82/3/2 87/3/2
f 80/3/2 81/3/2 87/3/2
f 79/3/2 80/3/2 87/3/2
f 78/3/2 79/3/2 87/3/2
f 77/3/2 78/3/2 87/3/2
f 65/3/2 77/3/2 87/3/2
f 86/3/2 66/3/2 88/3/2
f 87/3/2 86/3/2 88/3/2
f 91/3/3 90/3/3 89/3/3
f 92/3/3 90/3/3 91/3/3
f 93/3/3 91/3/3 89/3/3
f 93/2/3 92/2/3 91/2/3
f 94/3/3 90/3/3 92/3/3
f 94/2/3 92/2/3 93/2/3
f 95/3/3 93/3/3 89/3/3
f 95/3/3 94/3/3 93/3/3
f 96/3/3 90/3/3 94/3/3
f 96/3/3 94/3/3 95/3/3
f 97/3/3 95/3/3 89/3/3
f 97/2/3 96/2/3 95/2/3
f 98/3/3 90/3/3 96/3/3
f 98/2/3 96/2/3 97/2/3
f 99/3/3 97/3/3 89/3/3
f 99/3/3 98/3/3 97/3/3
f 100/3/3 90/3/3 98/3/3
f 100/3/3 98/3/3 99/3/3
f 101/3/3 99/3/3 89/3/3
f 101/2/3 100/2/3 99/2/3
f 102/3/3 90/3/3 100/3/3
f 102/2/3 100/2/3 101/2/3
f 103/3/3 101/3/3 89/3/3
f 103/3/3 102/3/3 101/3/3
f 104/3/3 90/3/3 102/3/3
f 104/3/3 102/3/3 103/3/3
f 105/3/4 106/3/4 109/3/4
f 106/2/4 107/2/4 110/2/4
f 109/3/4 106/3/4 110/3/4
f 107/3/4 108/3/4 111/3/4
f 110/2/4 107/2/4 111/2/4
f 111/3/4 108/3/4 112/3/4
f 113/3/4 114/3/4 115/3/4
f 115/3/4 114/3/4 116/3/4
f 113/3/4 115/3/4 117/3/4
f 115/2/4 116/2/4 117/2/4
f 116/3/4 114/3/4 118/3/4
f 117/2/4 116/2/4 118/2/4
f 113/3/4 117/3/4 119/3/4
f 117/3/4 118/3/4 119/3/4
f 118/3/4 114/3/4 120/3/4
f 119/3/4 118/3/4 120/3/4
f 121/3/4 122/3/4 123/3/4
f 123/3/4 122/3/4 124/3/4
f 121/3/4 123/3/4 125/3/4
f 123/2/4 124/2/4 125/2/4
f 124/3/4 122/3/4 126/3/4
f 125/2/4 124/2/4 126/2/4
f 121/3/4 125/3/4 127/3/4
f 125/3/4 126/3/4 127/3/4
f 126/3/4 122/3/4 128/3/4
f 127/3/4 126/3/4 128/3/4
f 131/3/5 130/3/5 129/3/5
f 132/3/5 130/3/5 131/3/5
f 133/3/5 130/3/5 132/3/5
f 134/3/5 130/3/5 133/3/5
f 135/3/5 130/3/5 134/3/5
f 136/3/5 130/3/5 135/3/5
f 137/3/5 131/3/5 129/3/5
f 137/2/5 132/2/5 131/2/5
f 138/3/5 133/3/5 132/3/5
f 138/2/5 132/2/5 137/2/5
f 139/2/5 134/2/5 133/2/5
f 139/3/5 133/3/5 138/3/5
f 140/3/5 135/3/5 134/3/5
f 140/2/5 134/2/5 139/2/5
f 141/2/5 136/2/5 135/2/5
f 141/3/5 135/3/5 140/3/5
f 142/3/5 130/3/5 136/3/5
f 142/2/5 136/2/5 141/2/5
f 143/3/5 141/3/5 140/3/5
f 143/3/5 140/3/5 139/3/5
f 143/3/5 142/3/5 141/3/5
f 143/3/5 139/3/5 138/3/5
f 143/3/5 138/3/5 137/3/5
f 143/3/5 137/3/5 129/3/5
f 144/3/5 142/3/5 143/3/5
f 145/3/5 142/3/5 144/3/5
f 146/3/5 142/3/5 145/3/5
f 147/3/5 142/3/5 146/3/5
f 148/3/5 130/3/5 142/3/5
f 148/3/5 142/3/5 147/3/5
f 149/3/5 143/3/5 129/3/5
f 149/2/5 144/2/5 143/2/5
f 150/3/5 145/3/5 144/3/5
f 150/2/5 144/2/5 149/2/5
f 151/3/5 147/3/5 146/3/5
f 151/2/5 148/2/5 147/2/5
f 152/3/5 130/3/5 148/3/5
f 152/2/5 148/2/5 151/2/5
f 153/3/5 150/3/5 149/3/5
f 153/3/5 149/3/5 129/3/5
f 154/3/5 145/3/5 150/3/5
f 154/3/5 150/3/5 153/3/5
f 155/3/5 151/3/5 146/3/5
f 155/3/5 152/3/5 151/3/5
f 156/3/5 130/3/5 152/3/5
f 156/3/5 152/3/5 155/3/5
f 157/3/5 153/3/5 129/3/5
f 157/2/5 154/2/5 153/2/5
f 158/3/5 145/3/5 154/3/5
f 158/2/5 154/2/5 157/2/5
f 159/3/5 155/3/5 146/3/5
f 159/2/5 156/2/5 155/2/5
f 160/3/5 130/3/5 156/3/5
f 160/2/5 156/2/5 159/2/5
f 161/3/5 157/3/5 129/3/5
f 161/3/5 158/3/5 157/3/5
f 162/3/5 145/3/5 158/3/5
f 162/3/5 158/3/5 161/3/5
f 163/3/5 159/3/5 146/3/5
f 163/3/5 160/3/5 159/3/5
f 164/3/5 130/3/5 160/3/5
f 164/3/5 160/3/5 163/3/5
f 165/3/5 161/3/5 129/3/5
f 165/2/5 162/2/5 161/2/5
f 166/3/5 145/3/5 162/3/5
f 166/2/5 162/2/5 165/2/5
f 167/3/5 163/3/5 146/3/5
f 167/2/5 164/2/5 163/2/5
f 168/3/5 130/3/5 164/3/5
f 168/2/5 164/2/5 167/2/5
f 169/3/5 165/3/5 129/3/5
f 169/3/5 166/3/5 165/3/5
f 170/3/5 145/3/5 166/3/5
f 170/3/5 166/3/5 169/3/5
f 171/3/5 167/3/5 146/3/5
f 171/3/5 168/3/5 167/3/5
f 172/3/5 130/3/5 168/3/5
f 172/3/5 168/3/5 171/3/5
f 173/3/5 169/3/5 129/3/5
f 173/2/5 170/2/5 169/2/5
f 174/3/5 145/3/5 170/3/5
f 174/2/5 170/2/5 173/2/5
f 175/3/5 171/3/5 146/3/5
f 175/2/5 172/2/5 171/2/5
f 176/3/5 130/3/5 172/3/5
f 176/2/5 172/2/5 175/2/5
f 177/3/5 173/3/5 129/3/5
f 177/3/5 174/3/5 173/3/5
f 178/3/5 145/3/5 174/3/5
f 178/3/5 174/3/5 177/3/5
f 179/3/5 175/3/5 146/3/5
f 179/3/5 176/3/5 175/3/5
f 180/3/5 130/3/5 176/3/5
f 180/3/5 176/3/5 179/3/5
f 181/3/6 182/3/6 183/3/6
f 183/3/6 182/3/6 184/3/6
f 184/3/6 182/3/6 185/3/6
f 185/3/6 182/3/6 186/3/6
f 186/3/6 182/3/6 187/3/6
f 187/3/6 182/3/6 188/3/6
f 181/3/6 183/3/6 189/3/6
f 183/2/6 184/2/6 189/2/6
f 184/3/6 185/3/6 190/3/6
f 189/2/6 184/2/6 190/2/6
f 185/2/6 186/2/6 191/2/6
f 190/3/6 185/3/6 191/3/6
f 186/3/6 187/3/6 192/3/6
f 191/2/6 186/2/6 192/2/6
f 187/2/6 188/2/6 193/2/6
f 192/3/6 187/3/6 193/3/6
f 188/3/6 182/3/6 194/3/6
f 193/2/6 188/2/6 194/2/6
f 192/3/6 193/3/6 195/3/6
f 191/3/6 192/3/6 195/3/6
f 193/3/6 194/3/6 195/3/6
f 190/3/6 191/3/6 195/3/6
f 189/3/6 190/3/6 195/3/6
f 181/3/6 189/3/6 195/3/6
f 195/3/6 194/3/6 196/3/6
f 196/3/6 194/3/6 197/3/6
f 197/3/6 194/3/6 198/3/6
f 198/3/6 194/3/6 199/3/6
f 194/3/6 182/3/6 200/3/6
f 199/3/6 194/3/6 200/3/6
f 181/3/6 195/3/6 201/3/6
f 195/2/6 196/2/6 201/2/6
f 196/3/6 197/3/6 202/3/6
f 201/2/6 196/2/6 202/2/6
f 198/3/6 199/3/6 203/3/6
f 199/2/6 200/2/6 203/2/6
f 200/3/6 182/3/6 204/3/6
f 203/2/6 200/2/6 204/2/6
f 201/3/6 202/3/6 205/3/6
f 181/3/6 201/3/6 205/3/6
f 202/3/6 197/3/6 206/3/6
f 205/3/6 202/3/6 206/3/6
f 198/3/6 203/3/6 207/3/6
f 203/3/6 204/3/6 207/3/6
f 204/3/6 182/3/6 208/3/6
f 207/3/6 204/3/6 208/3/6
f 181/3/6 205/3/6 209/3/6
f 205/2/6 206/2/6 209/2/6
f 206/3/6 197/3/6 210/3/6
f 209/2/6 206/2/6 210/2/6
f 198/3/6 207/3/6 211/3/6
f 207/2/6 208/2/6 211/2/6
f 208/3/6 182/3/6 212/3/6
f 211/2/6 208/2/6 212/2/6
f 181/3/6 209/3/6 213/3/6
f 209/3/6 210/3/6 213/3/6
f 210/3/6 197/3/6 214/3/6
f 213/3/6 210/3/6 214/3/6
f 198/3/6 211/3/6 215/3/6
f 211/3/6 212/3/6 215/3/6
f 212/3/6 182/3/6 216/3/6
f 215/3/6 212/3/6 216/3/6
f 181/3/6 213/3/6 217/3/6
f 213/2/6 214/2/6 217/2/6
f 214/3/6 197/3/6 218/3/6
f 217/2/6 214/2/6 218/2/6
f 198/3/6 215/3/6 219/3/6
f 215/2/6 216/2/6 219/2/6
f 216/3/6 182/3/6 220/3/6
f 219/2/6 216/2/6 220/2/6
f 181/3/6 217/3/6 221/3/6
f 217/3/6 218/3/6 221/3/6
f 218/3/6 197/3/6 222/3/6
f 221/3/6 218/3/6 222/3/6
f 198/3/6 219/3/6 223/3/6
f 219/3/6 220/3/6 223/3/6
f 220/3/6 182/3/6 224/3/6
f 223/3/6 220/3/6 224/3/6
f 181/3/6 221/3/6 225/3/6
f 221/2/6 222/2/6 225/2/6
f 222/3/6 197/3/6 226/3/6
f 225/2/6 222/2/6 226/2/6
f 198/3/6 223/3/6 227/3/6
f 223/2/6 224/2/6 227/2/6
f 224/3/6 182/3/6 228/3/6
f 227/2/6 224/2/6 228/2/6
f 181/3/6 225/3/6 229/3/6
f 225/3/6 226/3/6 229/3/6
f 226/3/6 197/3/6 230/3/6
f 229/3/6 226/3/6 230/3/6
f 198/3/6 227/3/6 231/3/6
f 227/3/6 228/3/6 231/3/6
f 228/3/6 182/3/6 232/3/6
f 231/3/6 228/3/6 232/3/6
